<?xml version="1.0" encoding="UTF-8" standalone="no"?>
<!DOCTYPE svg PUBLIC "-//W3C//DTD SVG 1.1//EN" "http://www.w3.org/Graphics/SVG/1.1/DTD/svg11.dtd">
<svg width="100%" height="100%" viewBox="0 0 529 530" version="1.1" xmlns="http://www.w3.org/2000/svg" xmlns:xlink="http://www.w3.org/1999/xlink" xml:space="preserve" style="fill-rule:evenodd;clip-rule:evenodd;stroke-linecap:round;stroke-linejoin:round;stroke-miterlimit:1.5;">
    <g transform="matrix(0.24,0,0,0.24,0,0)">
        <g id="Artboard1" transform="matrix(1.30888,0,0,0.785394,-791.132,-106.892)">
            <rect x="604.435" y="136.1" width="1683.54" height="2810.82" style="fill:none;"/>
            <g transform="matrix(0.764012,0,0,1.27325,498.71,148.786)">
                <g transform="matrix(1,0,0,1,-85.6485,0)">
                    <g>
                        <g transform="matrix(1,0,0,1,-4.69707,0)">
                            <g transform="matrix(1.31796,0,0,1.31796,209.812,29.4092)">
                                <circle cx="433.971" cy="916.968" r="211.919" style="fill:none;stroke:black;stroke-width:9.48px;"/>
                            </g>
                            <g transform="matrix(1,0,0,1,-5.36836,-152.958)">
                                <path d="M679.106,1312.08L679.106,1323.31C673.627,1318.73 667.957,1316.44 662.098,1316.44C655.642,1316.44 650.203,1318.76 645.781,1323.39C641.332,1328.01 639.108,1333.65 639.108,1340.32C639.108,1346.91 641.332,1352.47 645.781,1357C650.23,1361.53 655.682,1363.8 662.139,1363.8C665.475,1363.8 668.31,1363.26 670.643,1362.17C671.945,1361.63 673.294,1360.9 674.691,1359.97C676.088,1359.05 677.56,1357.94 679.106,1356.64L679.106,1368.07C673.681,1371.14 667.984,1372.67 662.016,1372.67C653.037,1372.67 645.374,1369.54 639.027,1363.27C632.706,1356.95 629.546,1349.33 629.546,1340.4C629.546,1332.4 632.191,1325.27 637.48,1319C643.991,1311.32 652.414,1307.48 662.749,1307.48C668.391,1307.48 673.844,1309.02 679.106,1312.08Z" style="fill-rule:nonzero;"/>
                                <path d="M687.448,1351.43C687.448,1345.71 689.496,1340.84 693.592,1336.82C697.688,1332.81 702.679,1330.8 708.566,1330.8C714.48,1330.8 719.498,1332.82 723.621,1336.86C727.69,1340.9 729.725,1345.87 729.725,1351.76C729.725,1357.7 727.677,1362.67 723.581,1366.69C719.457,1370.68 714.398,1372.67 708.403,1372.67C702.462,1372.67 697.485,1370.63 693.47,1366.57C689.455,1362.55 687.448,1357.51 687.448,1351.43ZM696.806,1351.59C696.806,1355.55 697.864,1358.69 699.98,1360.99C702.15,1363.33 705.012,1364.49 708.566,1364.49C712.147,1364.49 715.009,1363.34 717.152,1361.03C719.295,1358.73 720.366,1355.65 720.366,1351.8C720.366,1347.94 719.295,1344.87 717.152,1342.56C714.981,1340.23 712.12,1339.06 708.566,1339.06C705.067,1339.06 702.232,1340.23 700.062,1342.56C697.892,1344.89 696.806,1347.9 696.806,1351.59Z" style="fill-rule:nonzero;"/>
                                <path d="M739.409,1331.9L748.605,1331.9L748.605,1335.56C751.806,1332.39 755.414,1330.8 759.429,1330.8C764.04,1330.8 767.634,1332.25 770.211,1335.15C772.436,1337.62 773.548,1341.65 773.548,1347.24L773.548,1371.53L764.352,1371.53L764.352,1349.39C764.352,1345.49 763.81,1342.79 762.724,1341.3C761.667,1339.78 759.741,1339.02 756.946,1339.02C753.908,1339.02 751.752,1340.02 750.477,1342.03C749.229,1344.01 748.605,1347.47 748.605,1352.41L748.605,1371.53L739.409,1371.53L739.409,1331.9Z" style="fill-rule:nonzero;"/>
                                <path d="M794.544,1340.44L794.544,1371.53L785.389,1371.53L785.389,1340.44L781.483,1340.44L781.483,1331.9L785.389,1331.9L785.389,1317.37L794.544,1317.37L794.544,1331.9L801.665,1331.9L801.665,1340.44L794.544,1340.44Z" style="fill-rule:nonzero;"/>
                                <path d="M837.838,1331.9L847.034,1331.9L847.034,1371.53L837.838,1371.53L837.838,1367.38C834.068,1370.91 830.012,1372.67 825.672,1372.67C820.192,1372.67 815.662,1370.69 812.082,1366.73C808.528,1362.69 806.751,1357.64 806.751,1351.59C806.751,1345.65 808.528,1340.7 812.082,1336.74C815.635,1332.78 820.084,1330.8 825.428,1330.8C830.039,1330.8 834.176,1332.7 837.838,1336.5L837.838,1331.9ZM816.11,1351.59C816.11,1355.39 817.127,1358.48 819.162,1360.87C821.25,1363.28 823.882,1364.49 827.056,1364.49C830.446,1364.49 833.186,1363.33 835.275,1360.99C837.364,1358.58 838.408,1355.51 838.408,1351.8C838.408,1348.08 837.364,1345.01 835.275,1342.6C833.186,1340.24 830.473,1339.06 827.137,1339.06C823.99,1339.06 821.359,1340.25 819.243,1342.64C817.154,1345.06 816.11,1348.04 816.11,1351.59Z" style="fill-rule:nonzero;"/>
                                <path d="M889.433,1333.61L889.433,1345.77C887.345,1343.22 885.473,1341.47 883.818,1340.53C882.191,1339.55 880.278,1339.06 878.081,1339.06C874.636,1339.06 871.774,1340.27 869.495,1342.68C867.217,1345.1 866.077,1348.12 866.077,1351.76C866.077,1355.47 867.176,1358.52 869.373,1360.91C871.598,1363.3 874.432,1364.49 877.877,1364.49C880.075,1364.49 882.014,1364.02 883.696,1363.07C885.324,1362.14 887.236,1360.35 889.433,1357.7L889.433,1369.78C885.717,1371.71 882.001,1372.67 878.284,1372.67C872.154,1372.67 867.027,1370.69 862.903,1366.73C858.78,1362.74 856.719,1357.79 856.719,1351.88C856.719,1345.96 858.807,1340.97 862.985,1336.9C867.162,1332.83 872.289,1330.8 878.366,1330.8C882.272,1330.8 885.961,1331.74 889.433,1333.61Z" style="fill-rule:nonzero;"/>
                                <path d="M907.744,1340.44L907.744,1371.53L898.589,1371.53L898.589,1340.44L894.682,1340.44L894.682,1331.9L898.589,1331.9L898.589,1317.37L907.744,1317.37L907.744,1331.9L914.865,1331.9L914.865,1340.44L907.744,1340.44Z" style="fill-rule:nonzero;"/>
                                <path d="M944.121,1338.65L936.553,1342.68C935.359,1340.24 933.881,1339.02 932.117,1339.02C931.276,1339.02 930.558,1339.3 929.961,1339.85C929.364,1340.41 929.066,1341.12 929.066,1341.99C929.066,1343.51 930.829,1345.01 934.355,1346.51C939.211,1348.6 942.48,1350.52 944.162,1352.28C945.843,1354.05 946.684,1356.42 946.684,1359.4C946.684,1363.23 945.274,1366.43 942.453,1369.01C939.713,1371.45 936.403,1372.67 932.524,1372.67C925.878,1372.67 921.172,1369.43 918.405,1362.94L926.217,1359.32C927.302,1361.22 928.13,1362.43 928.699,1362.94C929.812,1363.98 931.141,1364.49 932.687,1364.49C935.779,1364.49 937.326,1363.08 937.326,1360.26C937.326,1358.63 936.132,1357.11 933.745,1355.7C932.823,1355.24 931.9,1354.79 930.978,1354.36C930.056,1353.92 929.12,1353.48 928.17,1353.02C925.512,1351.71 923.64,1350.41 922.555,1349.11C921.172,1347.45 920.48,1345.33 920.48,1342.72C920.48,1339.28 921.66,1336.43 924.02,1334.18C926.434,1331.92 929.364,1330.8 932.809,1330.8C937.882,1330.8 941.652,1333.42 944.121,1338.65Z" style="fill-rule:nonzero;"/>
                                <path d="M691.252,1403.88L683.562,1408.44C682.124,1405.94 680.754,1404.31 679.452,1403.55C678.096,1402.68 676.346,1402.25 674.203,1402.25C671.572,1402.25 669.388,1403 667.652,1404.49C665.916,1405.95 665.048,1407.8 665.048,1410.02C665.048,1413.09 667.327,1415.56 671.884,1417.43L678.15,1419.99C683.25,1422.05 686.98,1424.57 689.34,1427.54C691.7,1430.51 692.88,1434.15 692.88,1438.47C692.88,1444.24 690.954,1449.02 687.102,1452.79C683.223,1456.59 678.408,1458.49 672.657,1458.49C667.204,1458.49 662.701,1456.87 659.148,1453.64C655.648,1450.41 653.465,1445.87 652.597,1440.01L662.2,1437.9C662.634,1441.59 663.393,1444.13 664.478,1445.55C666.431,1448.26 669.28,1449.62 673.023,1449.62C675.98,1449.62 678.435,1448.62 680.388,1446.64C682.341,1444.66 683.318,1442.15 683.318,1439.12C683.318,1437.9 683.148,1436.78 682.809,1435.76C682.47,1434.74 681.941,1433.81 681.222,1432.95C680.503,1432.1 679.574,1431.3 678.435,1430.55C677.296,1429.81 675.939,1429.09 674.366,1428.41L668.303,1425.89C659.704,1422.26 655.404,1416.94 655.404,1409.94C655.404,1405.22 657.208,1401.28 660.816,1398.1C664.424,1394.9 668.913,1393.3 674.285,1393.3C681.527,1393.3 687.183,1396.83 691.252,1403.88Z" style="fill-rule:nonzero;"/>
                                <path d="M738.656,1439.69L710.255,1439.69C710.499,1442.94 711.557,1445.53 713.428,1447.46C715.3,1449.36 717.701,1450.31 720.631,1450.31C722.909,1450.31 724.794,1449.76 726.286,1448.68C727.751,1447.59 729.42,1445.59 731.291,1442.66L739.022,1446.97C737.829,1449 736.568,1450.75 735.238,1452.2C733.909,1453.65 732.485,1454.84 730.966,1455.78C729.447,1456.71 727.806,1457.4 726.042,1457.83C724.279,1458.27 722.367,1458.49 720.305,1458.49C714.391,1458.49 709.644,1456.59 706.063,1452.79C702.483,1448.96 700.692,1443.89 700.692,1437.57C700.692,1431.3 702.429,1426.23 705.901,1422.35C709.4,1418.53 714.039,1416.62 719.817,1416.62C725.649,1416.62 730.261,1418.47 733.651,1422.19C737.015,1425.88 738.697,1430.99 738.697,1437.53L738.656,1439.69ZM729.257,1432.2C727.982,1427.32 724.903,1424.88 720.02,1424.88C718.908,1424.88 717.864,1425.05 716.887,1425.38C715.91,1425.72 715.022,1426.21 714.222,1426.85C713.422,1427.49 712.737,1428.25 712.167,1429.15C711.597,1430.04 711.163,1431.06 710.865,1432.2L729.257,1432.2Z" style="fill-rule:nonzero;"/>
                                <path d="M748.666,1417.71L757.821,1417.71L757.821,1421.25C759.503,1419.49 760.995,1418.28 762.297,1417.63C763.626,1416.95 765.2,1416.62 767.017,1416.62C769.432,1416.62 771.954,1417.4 774.586,1418.98L770.395,1427.36C768.658,1426.11 766.963,1425.49 765.308,1425.49C760.317,1425.49 757.821,1429.26 757.821,1436.8L757.821,1457.35L748.666,1457.35L748.666,1417.71Z" style="fill-rule:nonzero;"/>
                                <path d="M788.339,1417.71L798.593,1439.97L808.806,1417.71L819.101,1417.71L798.511,1460.07L778.085,1417.71L788.339,1417.71Z" style="fill-rule:nonzero;"/>
                                <path d="M834.441,1417.71L834.441,1457.35L825.285,1457.35L825.285,1417.71L834.441,1417.71ZM823.902,1401.23C823.902,1399.63 824.485,1398.25 825.652,1397.08C826.818,1395.92 828.215,1395.33 829.843,1395.33C831.498,1395.33 832.908,1395.92 834.075,1397.08C835.241,1398.22 835.824,1399.62 835.824,1401.28C835.824,1402.93 835.241,1404.34 834.075,1405.51C832.935,1406.67 831.538,1407.26 829.883,1407.26C828.229,1407.26 826.818,1406.67 825.652,1405.51C824.485,1404.34 823.902,1402.92 823.902,1401.23Z" style="fill-rule:nonzero;"/>
                                <path d="M876.881,1419.42L876.881,1431.59C874.792,1429.04 872.92,1427.29 871.265,1426.34C869.638,1425.36 867.725,1424.88 865.528,1424.88C862.083,1424.88 859.221,1426.08 856.942,1428.5C854.664,1430.91 853.524,1433.93 853.524,1437.57C853.524,1441.29 854.623,1444.34 856.82,1446.73C859.045,1449.11 861.879,1450.31 865.325,1450.31C867.522,1450.31 869.461,1449.83 871.143,1448.88C872.771,1447.96 874.683,1446.17 876.881,1443.51L876.881,1455.6C873.164,1457.52 869.448,1458.49 865.731,1458.49C859.601,1458.49 854.474,1456.51 850.351,1452.54C846.227,1448.56 844.166,1443.61 844.166,1437.69C844.166,1431.78 846.254,1426.79 850.432,1422.72C854.609,1418.65 859.736,1416.62 865.813,1416.62C869.719,1416.62 873.408,1417.55 876.881,1419.42Z" style="fill-rule:nonzero;"/>
                                <path d="M921.843,1439.69L893.441,1439.69C893.686,1442.94 894.743,1445.53 896.615,1447.46C898.487,1449.36 900.888,1450.31 903.817,1450.31C906.096,1450.31 907.981,1449.76 909.473,1448.68C910.938,1447.59 912.606,1445.59 914.478,1442.66L922.209,1446.97C921.016,1449 919.754,1450.75 918.425,1452.2C917.096,1453.65 915.672,1454.84 914.153,1455.78C912.634,1456.71 910.992,1457.4 909.229,1457.83C907.466,1458.27 905.554,1458.49 903.492,1458.49C897.578,1458.49 892.831,1456.59 889.25,1452.79C885.67,1448.96 883.879,1443.89 883.879,1437.57C883.879,1431.3 885.615,1426.23 889.088,1422.35C892.587,1418.53 897.226,1416.62 903.004,1416.62C908.836,1416.62 913.447,1418.47 916.838,1422.19C920.202,1425.88 921.884,1430.99 921.884,1437.53L921.843,1439.69ZM912.444,1432.2C911.169,1427.32 908.09,1424.88 903.207,1424.88C902.095,1424.88 901.05,1425.05 900.074,1425.38C899.097,1425.72 898.209,1426.21 897.409,1426.85C896.608,1427.49 895.924,1428.25 895.354,1429.15C894.784,1430.04 894.35,1431.06 894.052,1432.2L912.444,1432.2Z" style="fill-rule:nonzero;"/>
                            </g>
                        </g>
                        <g transform="matrix(1,0,0,1,-5.99986,0)">
                            <g transform="matrix(0.776367,0,0,0.776367,159.173,396.406)">
                                <g transform="matrix(1.19164,0,0,1.19164,-36.7847,868.144)">
                                    <circle cx="433.971" cy="916.968" r="211.919" style="fill:none;stroke:black;stroke-width:13.51px;"/>
                                </g>
                                <g transform="matrix(1,0,0,1,-306.784,569.946)">
                                    <path d="M646.301,1308.7L646.301,1346.55C646.301,1351.94 647.183,1355.89 648.946,1358.39C651.577,1362 655.28,1363.8 660.054,1363.8C664.856,1363.8 668.572,1362 671.203,1358.39C672.967,1355.97 673.848,1352.03 673.848,1346.55L673.848,1308.7L683.329,1308.7L683.329,1349.15C683.329,1355.77 681.267,1361.22 677.144,1365.51C672.506,1370.28 666.809,1372.67 660.054,1372.67C653.3,1372.67 647.617,1370.28 643.005,1365.51C638.882,1361.22 636.82,1355.77 636.82,1349.15L636.82,1308.7L646.301,1308.7Z" style="fill-rule:nonzero;"/>
                                    <path d="M719.665,1338.65L712.097,1342.68C710.903,1340.24 709.425,1339.02 707.662,1339.02C706.821,1339.02 706.102,1339.3 705.505,1339.85C704.908,1340.41 704.61,1341.12 704.61,1341.99C704.61,1343.51 706.373,1345.01 709.9,1346.51C714.755,1348.6 718.024,1350.52 719.706,1352.28C721.388,1354.05 722.229,1356.42 722.229,1359.4C722.229,1363.23 720.818,1366.43 717.997,1369.01C715.257,1371.45 711.948,1372.67 708.069,1372.67C701.423,1372.67 696.716,1369.43 693.949,1362.94L701.762,1359.32C702.847,1361.22 703.674,1362.43 704.244,1362.94C705.356,1363.98 706.685,1364.49 708.231,1364.49C711.324,1364.49 712.87,1363.08 712.87,1360.26C712.87,1358.63 711.677,1357.11 709.289,1355.7C708.367,1355.24 707.445,1354.79 706.522,1354.36C705.6,1353.92 704.664,1353.48 703.715,1353.02C701.056,1351.71 699.185,1350.41 698.1,1349.11C696.716,1347.45 696.024,1345.33 696.024,1342.72C696.024,1339.28 697.204,1336.43 699.564,1334.18C701.979,1331.92 704.908,1330.8 708.354,1330.8C713.426,1330.8 717.197,1333.42 719.665,1338.65Z" style="fill-rule:nonzero;"/>
                                    <path d="M766.54,1353.87L738.139,1353.87C738.383,1357.13 739.441,1359.72 741.313,1361.64C743.184,1363.54 745.585,1364.49 748.515,1364.49C750.793,1364.49 752.679,1363.95 754.171,1362.86C755.635,1361.78 757.304,1359.77 759.175,1356.84L766.907,1361.15C765.713,1363.19 764.452,1364.93 763.122,1366.38C761.793,1367.83 760.369,1369.03 758.85,1369.96C757.331,1370.9 755.69,1371.59 753.926,1372.02C752.163,1372.45 750.251,1372.67 748.189,1372.67C742.276,1372.67 737.528,1370.77 733.948,1366.97C730.367,1363.15 728.577,1358.08 728.577,1351.76C728.577,1345.49 730.313,1340.42 733.785,1336.54C737.284,1332.71 741.923,1330.8 747.701,1330.8C753.533,1330.8 758.145,1332.66 761.535,1336.37C764.899,1340.06 766.581,1345.18 766.581,1351.71L766.54,1353.87ZM757.141,1346.38C755.866,1341.5 752.787,1339.06 747.904,1339.06C746.792,1339.06 745.748,1339.23 744.771,1339.57C743.795,1339.91 742.906,1340.4 742.106,1341.03C741.306,1341.67 740.621,1342.44 740.051,1343.33C739.481,1344.23 739.047,1345.25 738.749,1346.38L757.141,1346.38Z" style="fill-rule:nonzero;"/>
                                    <path d="M776.55,1331.9L785.705,1331.9L785.705,1335.44C787.387,1333.67 788.879,1332.47 790.181,1331.82C791.511,1331.14 793.084,1330.8 794.901,1330.8C797.316,1330.8 799.838,1331.59 802.47,1333.16L798.279,1341.54C796.543,1340.29 794.847,1339.67 793.192,1339.67C788.201,1339.67 785.705,1343.44 785.705,1350.98L785.705,1371.53L776.55,1371.53L776.55,1331.9Z" style="fill-rule:nonzero;"/>
                                    <path d="M872.091,1356.27L845.194,1356.27L838.196,1371.53L827.982,1371.53L859.07,1304.76L889.058,1371.53L878.682,1371.53L872.091,1356.27ZM868.225,1347.36L858.907,1326L849.141,1347.36L868.225,1347.36Z" style="fill-rule:nonzero;"/>
                                    <path d="M904.986,1333.97L898.069,1333.97L896.319,1308.7L906.736,1308.7L904.986,1333.97Z" style="fill-rule:nonzero;"/>
                                    <path d="M939.98,1338.65L932.411,1342.68C931.218,1340.24 929.739,1339.02 927.976,1339.02C927.135,1339.02 926.416,1339.3 925.819,1339.85C925.223,1340.41 924.924,1341.12 924.924,1341.99C924.924,1343.51 926.687,1345.01 930.214,1346.51C935.07,1348.6 938.338,1350.52 940.02,1352.28C941.702,1354.05 942.543,1356.42 942.543,1359.4C942.543,1363.23 941.132,1366.43 938.311,1369.01C935.571,1371.45 932.262,1372.67 928.383,1372.67C921.737,1372.67 917.03,1369.43 914.263,1362.94L922.076,1359.32C923.161,1361.22 923.988,1362.43 924.558,1362.94C925.67,1363.98 926.999,1364.49 928.546,1364.49C931.638,1364.49 933.184,1363.08 933.184,1360.26C933.184,1358.63 931.991,1357.11 929.604,1355.7C928.681,1355.24 927.759,1354.79 926.837,1354.36C925.914,1353.92 924.978,1353.48 924.029,1353.02C921.371,1351.71 919.499,1350.41 918.414,1349.11C917.03,1347.45 916.339,1345.33 916.339,1342.72C916.339,1339.28 917.519,1336.43 919.879,1334.18C922.293,1331.92 925.223,1330.8 928.668,1330.8C933.74,1330.8 937.511,1333.42 939.98,1338.65Z" style="fill-rule:nonzero;"/>
                                    <path d="M679.106,1397.9L679.106,1409.13C673.627,1404.54 667.957,1402.25 662.098,1402.25C655.642,1402.25 650.203,1404.57 645.781,1409.21C641.332,1413.82 639.108,1419.46 639.108,1426.14C639.108,1432.73 641.332,1438.29 645.781,1442.82C650.23,1447.35 655.682,1449.62 662.139,1449.62C665.475,1449.62 668.31,1449.07 670.643,1447.99C671.945,1447.44 673.294,1446.71 674.691,1445.79C676.088,1444.87 677.56,1443.76 679.106,1442.45L679.106,1453.89C673.681,1456.95 667.984,1458.49 662.016,1458.49C653.037,1458.49 645.374,1455.35 639.027,1449.09C632.706,1442.77 629.546,1435.14 629.546,1426.22C629.546,1418.22 632.191,1411.08 637.48,1404.82C643.991,1397.14 652.414,1393.3 662.749,1393.3C668.391,1393.3 673.844,1394.83 679.106,1397.9Z" style="fill-rule:nonzero;"/>
                                    <path d="M687.448,1437.25C687.448,1431.52 689.496,1426.65 693.592,1422.64C697.688,1418.62 702.679,1416.62 708.566,1416.62C714.48,1416.62 719.498,1418.64 723.621,1422.68C727.69,1426.72 729.725,1431.68 729.725,1437.57C729.725,1443.51 727.677,1448.49 723.581,1452.5C719.457,1456.49 714.398,1458.49 708.403,1458.49C702.462,1458.49 697.485,1456.45 693.47,1452.38C689.455,1448.37 687.448,1443.32 687.448,1437.25ZM696.806,1437.41C696.806,1441.37 697.864,1444.5 699.98,1446.81C702.15,1449.14 705.012,1450.31 708.566,1450.31C712.147,1450.31 715.009,1449.15 717.152,1446.85C719.295,1444.54 720.366,1441.46 720.366,1437.61C720.366,1433.76 719.295,1430.68 717.152,1428.37C714.981,1426.04 712.12,1424.88 708.566,1424.88C705.067,1424.88 702.232,1426.04 700.062,1428.37C697.892,1430.71 696.806,1433.72 696.806,1437.41Z" style="fill-rule:nonzero;"/>
                                    <path d="M739.409,1417.71L748.605,1417.71L748.605,1421.38C751.806,1418.2 755.414,1416.62 759.429,1416.62C764.04,1416.62 767.634,1418.07 770.211,1420.97C772.436,1423.44 773.548,1427.47 773.548,1433.05L773.548,1457.35L764.352,1457.35L764.352,1435.21C764.352,1431.3 763.81,1428.61 762.724,1427.11C761.667,1425.59 759.741,1424.83 756.946,1424.83C753.908,1424.83 751.752,1425.84 750.477,1427.85C749.229,1429.83 748.605,1433.28 748.605,1438.22L748.605,1457.35L739.409,1457.35L739.409,1417.71Z" style="fill-rule:nonzero;"/>
                                    <path d="M794.544,1426.26L794.544,1457.35L785.389,1457.35L785.389,1426.26L781.483,1426.26L781.483,1417.71L785.389,1417.71L785.389,1403.19L794.544,1403.19L794.544,1417.71L801.665,1417.71L801.665,1426.26L794.544,1426.26Z" style="fill-rule:nonzero;"/>
                                    <path d="M837.838,1417.71L847.034,1417.71L847.034,1457.35L837.838,1457.35L837.838,1453.19C834.068,1456.72 830.012,1458.49 825.672,1458.49C820.192,1458.49 815.662,1456.51 812.082,1452.54C808.528,1448.5 806.751,1443.46 806.751,1437.41C806.751,1431.47 808.528,1426.52 812.082,1422.56C815.635,1418.6 820.084,1416.62 825.428,1416.62C830.039,1416.62 834.176,1418.51 837.838,1422.31L837.838,1417.71ZM816.11,1437.41C816.11,1441.2 817.127,1444.3 819.162,1446.68C821.25,1449.1 823.882,1450.31 827.056,1450.31C830.446,1450.31 833.186,1449.14 835.275,1446.81C837.364,1444.39 838.408,1441.33 838.408,1437.61C838.408,1433.89 837.364,1430.83 835.275,1428.41C833.186,1426.06 830.473,1424.88 827.137,1424.88C823.99,1424.88 821.359,1426.07 819.243,1428.46C817.154,1430.87 816.11,1433.85 816.11,1437.41Z" style="fill-rule:nonzero;"/>
                                    <path d="M889.433,1419.42L889.433,1431.59C887.345,1429.04 885.473,1427.29 883.818,1426.34C882.191,1425.36 880.278,1424.88 878.081,1424.88C874.636,1424.88 871.774,1426.08 869.495,1428.5C867.217,1430.91 866.077,1433.93 866.077,1437.57C866.077,1441.29 867.176,1444.34 869.373,1446.73C871.598,1449.11 874.432,1450.31 877.877,1450.31C880.075,1450.31 882.014,1449.83 883.696,1448.88C885.324,1447.96 887.236,1446.17 889.433,1443.51L889.433,1455.6C885.717,1457.52 882.001,1458.49 878.284,1458.49C872.154,1458.49 867.027,1456.51 862.903,1452.54C858.78,1448.56 856.719,1443.61 856.719,1437.69C856.719,1431.78 858.807,1426.79 862.985,1422.72C867.162,1418.65 872.289,1416.62 878.366,1416.62C882.272,1416.62 885.961,1417.55 889.433,1419.42Z" style="fill-rule:nonzero;"/>
                                    <path d="M907.744,1426.26L907.744,1457.35L898.589,1457.35L898.589,1426.26L894.682,1426.26L894.682,1417.71L898.589,1417.71L898.589,1403.19L907.744,1403.19L907.744,1417.71L914.865,1417.71L914.865,1426.26L907.744,1426.26Z" style="fill-rule:nonzero;"/>
                                    <path d="M944.121,1424.47L936.553,1428.5C935.359,1426.06 933.881,1424.83 932.117,1424.83C931.276,1424.83 930.558,1425.11 929.961,1425.67C929.364,1426.23 929.066,1426.94 929.066,1427.81C929.066,1429.32 930.829,1430.83 934.355,1432.32C939.211,1434.41 942.48,1436.34 944.162,1438.1C945.843,1439.86 946.684,1442.24 946.684,1445.22C946.684,1449.05 945.274,1452.25 942.453,1454.82C939.713,1457.26 936.403,1458.49 932.524,1458.49C925.878,1458.49 921.172,1455.24 918.405,1448.76L926.217,1445.14C927.302,1447.04 928.13,1448.25 928.699,1448.76C929.812,1449.79 931.141,1450.31 932.687,1450.31C935.779,1450.31 937.326,1448.9 937.326,1446.08C937.326,1444.45 936.132,1442.93 933.745,1441.52C932.823,1441.06 931.9,1440.61 930.978,1440.17C930.056,1439.74 929.12,1439.29 928.17,1438.83C925.512,1437.53 923.64,1436.23 922.555,1434.93C921.172,1433.27 920.48,1431.14 920.48,1428.54C920.48,1425.09 921.66,1422.24 924.02,1419.99C926.434,1417.74 929.364,1416.62 932.809,1416.62C937.882,1416.62 941.652,1419.23 944.121,1424.47Z" style="fill-rule:nonzero;"/>
                                </g>
                            </g>
                            <g transform="matrix(0.776367,0,0,0.776367,159.173,396.406)">
                                <g transform="matrix(1.19164,0,0,1.19164,594.278,868.144)">
                                    <circle cx="433.971" cy="916.968" r="211.919" style="fill:none;stroke:black;stroke-width:13.51px;"/>
                                </g>
                                <g transform="matrix(1,0,0,1,324.279,569.946)">
                                    <path d="M653.777,1308.7L653.777,1346.55C653.777,1351.94 654.658,1355.89 656.422,1358.39C659.053,1362 662.756,1363.8 667.53,1363.8C672.331,1363.8 676.048,1362 678.679,1358.39C680.442,1355.97 681.324,1352.03 681.324,1346.55L681.324,1308.7L690.805,1308.7L690.805,1349.15C690.805,1355.77 688.743,1361.22 684.62,1365.51C679.981,1370.28 674.285,1372.67 667.53,1372.67C660.775,1372.67 655.092,1370.28 650.481,1365.51C646.358,1361.22 644.296,1355.77 644.296,1349.15L644.296,1308.7L653.777,1308.7Z" style="fill-rule:nonzero;"/>
                                    <path d="M727.141,1338.65L719.573,1342.68C718.379,1340.24 716.901,1339.02 715.137,1339.02C714.296,1339.02 713.578,1339.3 712.981,1339.85C712.384,1340.41 712.086,1341.12 712.086,1341.99C712.086,1343.51 713.849,1345.01 717.375,1346.51C722.231,1348.6 725.5,1350.52 727.182,1352.28C728.864,1354.05 729.704,1356.42 729.704,1359.4C729.704,1363.23 728.294,1366.43 725.473,1369.01C722.733,1371.45 719.423,1372.67 715.544,1372.67C708.898,1372.67 704.192,1369.43 701.425,1362.94L709.237,1359.32C710.322,1361.22 711.15,1362.43 711.719,1362.94C712.832,1363.98 714.161,1364.49 715.707,1364.49C718.799,1364.49 720.346,1363.08 720.346,1360.26C720.346,1358.63 719.152,1357.11 716.765,1355.7C715.843,1355.24 714.92,1354.79 713.998,1354.36C713.076,1353.92 712.14,1353.48 711.19,1353.02C708.532,1351.71 706.66,1350.41 705.575,1349.11C704.192,1347.45 703.5,1345.33 703.5,1342.72C703.5,1339.28 704.68,1336.43 707.04,1334.18C709.454,1331.92 712.384,1330.8 715.829,1330.8C720.902,1330.8 724.672,1333.42 727.141,1338.65Z" style="fill-rule:nonzero;"/>
                                    <path d="M774.016,1353.87L745.614,1353.87C745.858,1357.13 746.916,1359.72 748.788,1361.64C750.66,1363.54 753.061,1364.49 755.99,1364.49C758.269,1364.49 760.154,1363.95 761.646,1362.86C763.111,1361.78 764.779,1359.77 766.651,1356.84L774.382,1361.15C773.189,1363.19 771.927,1364.93 770.598,1366.38C769.269,1367.83 767.845,1369.03 766.326,1369.96C764.806,1370.9 763.165,1371.59 761.402,1372.02C759.639,1372.45 757.726,1372.67 755.665,1372.67C749.751,1372.67 745.004,1370.77 741.423,1366.97C737.842,1363.15 736.052,1358.08 736.052,1351.76C736.052,1345.49 737.788,1340.42 741.26,1336.54C744.76,1332.71 749.398,1330.8 755.176,1330.8C761.009,1330.8 765.62,1332.66 769.011,1336.37C772.375,1340.06 774.057,1345.18 774.057,1351.71L774.016,1353.87ZM764.617,1346.38C763.342,1341.5 760.263,1339.06 755.38,1339.06C754.268,1339.06 753.223,1339.23 752.247,1339.57C751.27,1339.91 750.382,1340.4 749.582,1341.03C748.781,1341.67 748.096,1342.44 747.527,1343.33C746.957,1344.23 746.523,1345.25 746.225,1346.38L764.617,1346.38Z" style="fill-rule:nonzero;"/>
                                    <path d="M784.026,1331.9L793.181,1331.9L793.181,1335.44C794.863,1333.67 796.355,1332.47 797.657,1331.82C798.986,1331.14 800.559,1330.8 802.377,1330.8C804.791,1330.8 807.314,1331.59 809.945,1333.16L805.754,1341.54C804.018,1340.29 802.323,1339.67 800.668,1339.67C795.677,1339.67 793.181,1343.44 793.181,1350.98L793.181,1371.53L784.026,1371.53L784.026,1331.9Z" style="fill-rule:nonzero;"/>
                                    <path d="M842.66,1371.53L842.66,1308.7L852.1,1308.7C856.305,1308.7 859.655,1309.03 862.151,1309.68C864.674,1310.33 866.803,1311.43 868.539,1312.98C870.302,1314.58 871.699,1316.57 872.73,1318.96C873.788,1321.37 874.317,1323.81 874.317,1326.28C874.317,1330.79 872.595,1334.6 869.149,1337.72C872.486,1338.86 875.117,1340.85 877.043,1343.7C878.996,1346.52 879.973,1349.8 879.973,1353.55C879.973,1358.45 878.237,1362.61 874.765,1366C872.676,1368.09 870.329,1369.54 867.725,1370.35C864.877,1371.14 861.31,1371.53 857.024,1371.53L842.66,1371.53ZM852.141,1335.68L855.111,1335.68C858.638,1335.68 861.222,1334.9 862.863,1333.34C864.504,1331.78 865.325,1329.48 865.325,1326.45C865.325,1323.49 864.484,1321.24 862.802,1319.71C861.12,1318.18 858.679,1317.41 855.478,1317.41L852.141,1317.41L852.141,1335.68ZM852.141,1362.62L858,1362.62C862.286,1362.62 865.433,1361.78 867.44,1360.1C869.556,1358.28 870.614,1355.97 870.614,1353.18C870.614,1350.47 869.597,1348.19 867.563,1346.34C865.582,1344.53 862.042,1343.62 856.942,1343.62L852.141,1343.62L852.141,1362.62Z" style="fill-rule:nonzero;"/>
                                    <path d="M897.51,1333.97L890.593,1333.97L888.843,1308.7L899.26,1308.7L897.51,1333.97Z" style="fill-rule:nonzero;"/>
                                    <path d="M932.504,1338.65L924.936,1342.68C923.742,1340.24 922.264,1339.02 920.5,1339.02C919.659,1339.02 918.941,1339.3 918.344,1339.85C917.747,1340.41 917.449,1341.12 917.449,1341.99C917.449,1343.51 919.212,1345.01 922.738,1346.51C927.594,1348.6 930.863,1350.52 932.545,1352.28C934.226,1354.05 935.067,1356.42 935.067,1359.4C935.067,1363.23 933.657,1366.43 930.836,1369.01C928.096,1371.45 924.786,1372.67 920.907,1372.67C914.261,1372.67 909.555,1369.43 906.788,1362.94L914.6,1359.32C915.685,1361.22 916.513,1362.43 917.082,1362.94C918.195,1363.98 919.524,1364.49 921.07,1364.49C924.162,1364.49 925.709,1363.08 925.709,1360.26C925.709,1358.63 924.515,1357.11 922.128,1355.7C921.206,1355.24 920.283,1354.79 919.361,1354.36C918.439,1353.92 917.503,1353.48 916.553,1353.02C913.895,1351.71 912.023,1350.41 910.938,1349.11C909.555,1347.45 908.863,1345.33 908.863,1342.72C908.863,1339.28 910.043,1336.43 912.403,1334.18C914.817,1331.92 917.747,1330.8 921.192,1330.8C926.265,1330.8 930.035,1333.42 932.504,1338.65Z" style="fill-rule:nonzero;"/>
                                    <path d="M679.106,1397.9L679.106,1409.13C673.627,1404.54 667.957,1402.25 662.098,1402.25C655.642,1402.25 650.203,1404.57 645.781,1409.21C641.332,1413.82 639.108,1419.46 639.108,1426.14C639.108,1432.73 641.332,1438.29 645.781,1442.82C650.23,1447.35 655.682,1449.62 662.139,1449.62C665.475,1449.62 668.31,1449.07 670.643,1447.99C671.945,1447.44 673.294,1446.71 674.691,1445.79C676.088,1444.87 677.56,1443.76 679.106,1442.45L679.106,1453.89C673.681,1456.95 667.984,1458.49 662.016,1458.49C653.037,1458.49 645.374,1455.35 639.027,1449.09C632.706,1442.77 629.546,1435.14 629.546,1426.22C629.546,1418.22 632.191,1411.08 637.48,1404.82C643.991,1397.14 652.414,1393.3 662.749,1393.3C668.391,1393.3 673.844,1394.83 679.106,1397.9Z" style="fill-rule:nonzero;"/>
                                    <path d="M687.448,1437.25C687.448,1431.52 689.496,1426.65 693.592,1422.64C697.688,1418.62 702.679,1416.62 708.566,1416.62C714.48,1416.62 719.498,1418.64 723.621,1422.68C727.69,1426.72 729.725,1431.68 729.725,1437.57C729.725,1443.51 727.677,1448.49 723.581,1452.5C719.457,1456.49 714.398,1458.49 708.403,1458.49C702.462,1458.49 697.485,1456.45 693.47,1452.38C689.455,1448.37 687.448,1443.32 687.448,1437.25ZM696.806,1437.41C696.806,1441.37 697.864,1444.5 699.98,1446.81C702.15,1449.14 705.012,1450.31 708.566,1450.31C712.147,1450.31 715.009,1449.15 717.152,1446.85C719.295,1444.54 720.366,1441.46 720.366,1437.61C720.366,1433.76 719.295,1430.68 717.152,1428.37C714.981,1426.04 712.12,1424.88 708.566,1424.88C705.067,1424.88 702.232,1426.04 700.062,1428.37C697.892,1430.71 696.806,1433.72 696.806,1437.41Z" style="fill-rule:nonzero;"/>
                                    <path d="M739.409,1417.71L748.605,1417.71L748.605,1421.38C751.806,1418.2 755.414,1416.62 759.429,1416.62C764.04,1416.62 767.634,1418.07 770.211,1420.97C772.436,1423.44 773.548,1427.47 773.548,1433.05L773.548,1457.35L764.352,1457.35L764.352,1435.21C764.352,1431.3 763.81,1428.61 762.724,1427.11C761.667,1425.59 759.741,1424.83 756.946,1424.83C753.908,1424.83 751.752,1425.84 750.477,1427.85C749.229,1429.83 748.605,1433.28 748.605,1438.22L748.605,1457.35L739.409,1457.35L739.409,1417.71Z" style="fill-rule:nonzero;"/>
                                    <path d="M794.544,1426.26L794.544,1457.35L785.389,1457.35L785.389,1426.26L781.483,1426.26L781.483,1417.71L785.389,1417.71L785.389,1403.19L794.544,1403.19L794.544,1417.71L801.665,1417.71L801.665,1426.26L794.544,1426.26Z" style="fill-rule:nonzero;"/>
                                    <path d="M837.838,1417.71L847.034,1417.71L847.034,1457.35L837.838,1457.35L837.838,1453.19C834.068,1456.72 830.012,1458.49 825.672,1458.49C820.192,1458.49 815.662,1456.51 812.082,1452.54C808.528,1448.5 806.751,1443.46 806.751,1437.41C806.751,1431.47 808.528,1426.52 812.082,1422.56C815.635,1418.6 820.084,1416.62 825.428,1416.62C830.039,1416.62 834.176,1418.51 837.838,1422.31L837.838,1417.71ZM816.11,1437.41C816.11,1441.2 817.127,1444.3 819.162,1446.68C821.25,1449.1 823.882,1450.31 827.056,1450.31C830.446,1450.31 833.186,1449.14 835.275,1446.81C837.364,1444.39 838.408,1441.33 838.408,1437.61C838.408,1433.89 837.364,1430.83 835.275,1428.41C833.186,1426.06 830.473,1424.88 827.137,1424.88C823.99,1424.88 821.359,1426.07 819.243,1428.46C817.154,1430.87 816.11,1433.85 816.11,1437.41Z" style="fill-rule:nonzero;"/>
                                    <path d="M889.433,1419.42L889.433,1431.59C887.345,1429.04 885.473,1427.29 883.818,1426.34C882.191,1425.36 880.278,1424.88 878.081,1424.88C874.636,1424.88 871.774,1426.08 869.495,1428.5C867.217,1430.91 866.077,1433.93 866.077,1437.57C866.077,1441.29 867.176,1444.34 869.373,1446.73C871.598,1449.11 874.432,1450.31 877.877,1450.31C880.075,1450.31 882.014,1449.83 883.696,1448.88C885.324,1447.96 887.236,1446.17 889.433,1443.51L889.433,1455.6C885.717,1457.52 882.001,1458.49 878.284,1458.49C872.154,1458.49 867.027,1456.51 862.903,1452.54C858.78,1448.56 856.719,1443.61 856.719,1437.69C856.719,1431.78 858.807,1426.79 862.985,1422.72C867.162,1418.65 872.289,1416.62 878.366,1416.62C882.272,1416.62 885.961,1417.55 889.433,1419.42Z" style="fill-rule:nonzero;"/>
                                    <path d="M907.744,1426.26L907.744,1457.35L898.589,1457.35L898.589,1426.26L894.682,1426.26L894.682,1417.71L898.589,1417.71L898.589,1403.19L907.744,1403.19L907.744,1417.71L914.865,1417.71L914.865,1426.26L907.744,1426.26Z" style="fill-rule:nonzero;"/>
                                    <path d="M944.121,1424.47L936.553,1428.5C935.359,1426.06 933.881,1424.83 932.117,1424.83C931.276,1424.83 930.558,1425.11 929.961,1425.67C929.364,1426.23 929.066,1426.94 929.066,1427.81C929.066,1429.32 930.829,1430.83 934.355,1432.32C939.211,1434.41 942.48,1436.34 944.162,1438.1C945.843,1439.86 946.684,1442.24 946.684,1445.22C946.684,1449.05 945.274,1452.25 942.453,1454.82C939.713,1457.26 936.403,1458.49 932.524,1458.49C925.878,1458.49 921.172,1455.24 918.405,1448.76L926.217,1445.14C927.302,1447.04 928.13,1448.25 928.699,1448.76C929.812,1449.79 931.141,1450.31 932.687,1450.31C935.779,1450.31 937.326,1448.9 937.326,1446.08C937.326,1444.45 936.132,1442.93 933.745,1441.52C932.823,1441.06 931.9,1440.61 930.978,1440.17C930.056,1439.74 929.12,1439.29 928.17,1438.83C925.512,1437.53 923.64,1436.23 922.555,1434.93C921.172,1433.27 920.48,1431.14 920.48,1428.54C920.48,1425.09 921.66,1422.24 924.02,1419.99C926.434,1417.74 929.364,1416.62 932.809,1416.62C937.882,1416.62 941.652,1419.23 944.121,1424.47Z" style="fill-rule:nonzero;"/>
                                </g>
                            </g>
                        </g>
                        <g transform="matrix(1,0,0,1,1103.47,4.01795)">
                            <g transform="matrix(0.776367,0,0,0.776367,159.173,396.406)">
                                <g transform="matrix(1.19164,0,0,1.19164,-36.7847,868.144)">
                                    <circle cx="433.971" cy="916.968" r="211.919" style="fill:none;stroke:black;stroke-width:13.51px;"/>
                                </g>
                                <g transform="matrix(1,0,0,1,-306.784,569.946)">
                                    <path d="M727.08,1317.62L701.893,1317.62L701.893,1332.71L726.348,1332.71L726.348,1341.62L701.893,1341.62L701.893,1362.62L727.08,1362.62L727.08,1371.53L692.412,1371.53L692.412,1308.7L727.08,1308.7L727.08,1317.62Z" style="fill-rule:nonzero;"/>
                                    <path d="M737.781,1331.9L746.937,1331.9L746.937,1335.56C748.7,1333.72 750.205,1332.47 751.453,1331.82C752.783,1331.14 754.451,1330.8 756.458,1330.8C760.934,1330.8 764.474,1332.75 767.078,1336.66C769.954,1332.75 773.846,1330.8 778.756,1330.8C787.681,1330.8 792.143,1336.21 792.143,1347.04L792.143,1371.53L782.947,1371.53L782.947,1349.52C782.947,1345.72 782.486,1343.03 781.564,1341.46C780.615,1339.86 779.055,1339.06 776.885,1339.06C774.362,1339.06 772.524,1340.01 771.371,1341.91C770.218,1343.81 769.642,1346.86 769.642,1351.06L769.642,1371.53L760.446,1371.53L760.446,1349.64C760.446,1342.59 758.411,1339.06 754.342,1339.06C751.765,1339.06 749.887,1340.02 748.707,1341.95C747.527,1343.88 746.937,1346.91 746.937,1351.06L746.937,1371.53L737.781,1371.53L737.781,1331.9Z" style="fill-rule:nonzero;"/>
                                    <path d="M832.915,1331.9L842.111,1331.9L842.111,1371.53L832.915,1371.53L832.915,1367.38C829.144,1370.91 825.089,1372.67 820.749,1372.67C815.269,1372.67 810.739,1370.69 807.158,1366.73C803.604,1362.69 801.828,1357.64 801.828,1351.59C801.828,1345.65 803.604,1340.7 807.158,1336.74C810.712,1332.78 815.16,1330.8 820.504,1330.8C825.116,1330.8 829.253,1332.7 832.915,1336.5L832.915,1331.9ZM811.186,1351.59C811.186,1355.39 812.204,1358.48 814.238,1360.87C816.327,1363.28 818.958,1364.49 822.132,1364.49C825.523,1364.49 828.263,1363.33 830.351,1360.99C832.44,1358.58 833.485,1355.51 833.485,1351.8C833.485,1348.08 832.44,1345.01 830.351,1342.6C828.263,1340.24 825.55,1339.06 822.213,1339.06C819.067,1339.06 816.435,1340.25 814.32,1342.64C812.231,1345.06 811.186,1348.04 811.186,1351.59Z" style="fill-rule:nonzero;"/>
                                    <path d="M862.822,1331.9L862.822,1371.53L853.667,1371.53L853.667,1331.9L862.822,1331.9ZM852.283,1315.42C852.283,1313.82 852.867,1312.43 854.033,1311.27C855.199,1310.1 856.597,1309.52 858.224,1309.52C859.879,1309.52 861.289,1310.1 862.456,1311.27C863.622,1312.41 864.206,1313.81 864.206,1315.46C864.206,1317.11 863.622,1318.53 862.456,1319.69C861.317,1320.86 859.92,1321.44 858.265,1321.44C856.61,1321.44 855.199,1320.86 854.033,1319.69C852.867,1318.53 852.283,1317.1 852.283,1315.42Z" style="fill-rule:nonzero;"/>
                                    <rect x="874.419" y="1302.81" width="9.155" height="68.726" style="fill-rule:nonzero;"/>
                                    <path d="M607.187,1403.43L607.187,1457.35L597.706,1457.35L597.706,1403.43L583.261,1403.43L583.261,1394.52L621.591,1394.52L621.591,1403.43L607.187,1403.43Z" style="fill-rule:nonzero;"/>
                                    <path d="M660.979,1439.69L632.577,1439.69C632.821,1442.94 633.879,1445.53 635.751,1447.46C637.623,1449.36 640.023,1450.31 642.953,1450.31C645.232,1450.31 647.117,1449.76 648.609,1448.68C650.074,1447.59 651.742,1445.59 653.614,1442.66L661.345,1446.97C660.151,1449 658.89,1450.75 657.561,1452.2C656.232,1453.65 654.808,1454.84 653.288,1455.78C651.769,1456.71 650.128,1457.4 648.365,1457.83C646.602,1458.27 644.689,1458.49 642.628,1458.49C636.714,1458.49 631.967,1456.59 628.386,1452.79C624.805,1448.96 623.015,1443.89 623.015,1437.57C623.015,1431.3 624.751,1426.23 628.223,1422.35C631.723,1418.53 636.361,1416.62 642.139,1416.62C647.972,1416.62 652.583,1418.47 655.974,1422.19C659.338,1425.88 661.02,1430.99 661.02,1437.53L660.979,1439.69ZM651.579,1432.2C650.304,1427.32 647.226,1424.88 642.343,1424.88C641.231,1424.88 640.186,1425.05 639.21,1425.38C638.233,1425.72 637.345,1426.21 636.544,1426.85C635.744,1427.49 635.059,1428.25 634.49,1429.15C633.92,1430.04 633.486,1431.06 633.188,1432.2L651.579,1432.2Z" style="fill-rule:nonzero;"/>
                                    <path d="M670.989,1417.71L680.144,1417.71L680.144,1421.38C681.907,1419.53 683.413,1418.28 684.66,1417.63C685.99,1416.95 687.658,1416.62 689.665,1416.62C694.141,1416.62 697.681,1418.57 700.285,1422.47C703.161,1418.57 707.054,1416.62 711.964,1416.62C720.888,1416.62 725.351,1422.03 725.351,1432.85L725.351,1457.35L716.155,1457.35L716.155,1435.33C716.155,1431.54 715.693,1428.85 714.771,1427.28C713.822,1425.67 712.262,1424.88 710.092,1424.88C707.569,1424.88 705.731,1425.83 704.578,1427.72C703.425,1429.62 702.849,1432.67 702.849,1436.88L702.849,1457.35L693.653,1457.35L693.653,1435.45C693.653,1428.4 691.618,1424.88 687.549,1424.88C684.972,1424.88 683.094,1425.84 681.914,1427.76C680.734,1429.69 680.144,1432.73 680.144,1436.88L680.144,1457.35L670.989,1457.35L670.989,1417.71Z" style="fill-rule:nonzero;"/>
                                    <path d="M747.079,1478.91L737.924,1478.91L737.924,1417.71L747.079,1417.71L747.079,1422.03C750.687,1418.42 754.783,1416.62 759.368,1416.62C764.82,1416.62 769.309,1418.62 772.836,1422.64C776.417,1426.62 778.207,1431.66 778.207,1437.73C778.207,1443.67 776.43,1448.62 772.877,1452.59C769.35,1456.52 764.901,1458.49 759.53,1458.49C754.892,1458.49 750.741,1456.63 747.079,1452.91L747.079,1478.91ZM768.848,1437.77C768.848,1433.98 767.818,1430.88 765.756,1428.5C763.667,1426.08 761.036,1424.88 757.862,1424.88C754.498,1424.88 751.772,1426.04 749.683,1428.37C747.595,1430.71 746.55,1433.77 746.55,1437.57C746.55,1441.29 747.595,1444.35 749.683,1446.77C751.745,1449.13 754.458,1450.31 757.821,1450.31C760.995,1450.31 763.613,1449.11 765.674,1446.73C767.79,1444.34 768.848,1441.36 768.848,1437.77Z" style="fill-rule:nonzero;"/>
                                    <rect x="787.891" y="1388.62" width="9.155" height="68.726" style="fill-rule:nonzero;"/>
                                    <path d="M837.859,1417.71L847.055,1417.71L847.055,1457.35L837.859,1457.35L837.859,1453.19C834.088,1456.72 830.033,1458.49 825.692,1458.49C820.213,1458.49 815.683,1456.51 812.102,1452.54C808.548,1448.5 806.771,1443.46 806.771,1437.41C806.771,1431.47 808.548,1426.52 812.102,1422.56C815.655,1418.6 820.104,1416.62 825.448,1416.62C830.06,1416.62 834.197,1418.51 837.859,1422.31L837.859,1417.71ZM816.13,1437.41C816.13,1441.2 817.147,1444.3 819.182,1446.68C821.271,1449.1 823.902,1450.31 827.076,1450.31C830.467,1450.31 833.206,1449.14 835.295,1446.81C837.384,1444.39 838.428,1441.33 838.428,1437.61C838.428,1433.89 837.384,1430.83 835.295,1428.41C833.206,1426.06 830.494,1424.88 827.157,1424.88C824.011,1424.88 821.379,1426.07 819.263,1428.46C817.175,1430.87 816.13,1433.85 816.13,1437.41Z" style="fill-rule:nonzero;"/>
                                    <path d="M868.051,1426.26L868.051,1457.35L858.896,1457.35L858.896,1426.26L854.989,1426.26L854.989,1417.71L858.896,1417.71L858.896,1403.19L868.051,1403.19L868.051,1417.71L875.172,1417.71L875.172,1426.26L868.051,1426.26Z" style="fill-rule:nonzero;"/>
                                    <path d="M890.552,1417.71L890.552,1457.35L881.397,1457.35L881.397,1417.71L890.552,1417.71ZM880.014,1401.23C880.014,1399.63 880.597,1398.25 881.763,1397.08C882.93,1395.92 884.327,1395.33 885.954,1395.33C887.609,1395.33 889.02,1395.92 890.186,1397.08C891.353,1398.22 891.936,1399.62 891.936,1401.28C891.936,1402.93 891.353,1404.34 890.186,1405.51C889.047,1406.67 887.65,1407.26 885.995,1407.26C884.34,1407.26 882.93,1406.67 881.763,1405.51C880.597,1404.34 880.014,1402.92 880.014,1401.23Z" style="fill-rule:nonzero;"/>
                                    <path d="M902.149,1417.71L911.345,1417.71L911.345,1421.38C914.546,1418.2 918.154,1416.62 922.169,1416.62C926.78,1416.62 930.374,1418.07 932.952,1420.97C935.176,1423.44 936.288,1427.47 936.288,1433.05L936.288,1457.35L927.092,1457.35L927.092,1435.21C927.092,1431.3 926.55,1428.61 925.465,1427.11C924.407,1425.59 922.481,1424.83 919.687,1424.83C916.648,1424.83 914.492,1425.84 913.217,1427.85C911.969,1429.83 911.345,1433.28 911.345,1438.22L911.345,1457.35L902.149,1457.35L902.149,1417.71Z" style="fill-rule:nonzero;"/>
                                    <path d="M986.174,1456.41C986.174,1458.28 986.113,1459.93 985.991,1461.35C985.869,1462.78 985.699,1464.03 985.482,1465.12C984.831,1468.1 983.556,1470.66 981.658,1472.81C978.077,1476.93 973.153,1478.99 966.887,1478.99C961.597,1478.99 957.243,1477.57 953.826,1474.72C950.299,1471.79 948.265,1467.74 947.722,1462.55L956.918,1462.55C957.271,1464.51 957.854,1466.01 958.668,1467.07C960.567,1469.54 963.333,1470.77 966.968,1470.77C973.669,1470.77 977.019,1466.66 977.019,1458.44L977.019,1452.91C973.384,1456.63 969.193,1458.49 964.446,1458.49C959.047,1458.49 954.626,1456.53 951.181,1452.63C947.708,1448.66 945.972,1443.71 945.972,1437.77C945.972,1432 947.586,1427.09 950.814,1423.04C954.287,1418.76 958.871,1416.62 964.568,1416.62C969.559,1416.62 973.709,1418.47 977.019,1422.19L977.019,1417.71L986.174,1417.71L986.174,1456.41ZM977.385,1437.61C977.385,1433.76 976.354,1430.68 974.293,1428.37C972.204,1426.01 969.532,1424.83 966.277,1424.83C962.804,1424.83 960.065,1426.12 958.057,1428.7C956.24,1431.01 955.331,1433.99 955.331,1437.65C955.331,1441.26 956.24,1444.22 958.057,1446.52C960.038,1449.05 962.777,1450.31 966.277,1450.31C969.776,1450.31 972.543,1449.03 974.577,1446.48C976.449,1444.18 977.385,1441.22 977.385,1437.61Z" style="fill-rule:nonzero;"/>
                                </g>
                            </g>
                            <g transform="matrix(0.776367,0,0,0.776367,159.173,396.406)">
                                <g transform="matrix(1.19164,0,0,1.19164,594.278,868.144)">
                                    <circle cx="433.971" cy="916.968" r="211.919" style="fill:none;stroke:black;stroke-width:13.51px;"/>
                                </g>
                                <g transform="matrix(1,0,0,1,324.279,569.946)">
                                    <path d="M727.08,1317.62L701.893,1317.62L701.893,1332.71L726.348,1332.71L726.348,1341.62L701.893,1341.62L701.893,1362.62L727.08,1362.62L727.08,1371.53L692.412,1371.53L692.412,1308.7L727.08,1308.7L727.08,1317.62Z" style="fill-rule:nonzero;"/>
                                    <path d="M737.781,1331.9L746.937,1331.9L746.937,1335.56C748.7,1333.72 750.205,1332.47 751.453,1331.82C752.783,1331.14 754.451,1330.8 756.458,1330.8C760.934,1330.8 764.474,1332.75 767.078,1336.66C769.954,1332.75 773.846,1330.8 778.756,1330.8C787.681,1330.8 792.143,1336.21 792.143,1347.04L792.143,1371.53L782.947,1371.53L782.947,1349.52C782.947,1345.72 782.486,1343.03 781.564,1341.46C780.615,1339.86 779.055,1339.06 776.885,1339.06C774.362,1339.06 772.524,1340.01 771.371,1341.91C770.218,1343.81 769.642,1346.86 769.642,1351.06L769.642,1371.53L760.446,1371.53L760.446,1349.64C760.446,1342.59 758.411,1339.06 754.342,1339.06C751.765,1339.06 749.887,1340.02 748.707,1341.95C747.527,1343.88 746.937,1346.91 746.937,1351.06L746.937,1371.53L737.781,1371.53L737.781,1331.9Z" style="fill-rule:nonzero;"/>
                                    <path d="M832.915,1331.9L842.111,1331.9L842.111,1371.53L832.915,1371.53L832.915,1367.38C829.144,1370.91 825.089,1372.67 820.749,1372.67C815.269,1372.67 810.739,1370.69 807.158,1366.73C803.604,1362.69 801.828,1357.64 801.828,1351.59C801.828,1345.65 803.604,1340.7 807.158,1336.74C810.712,1332.78 815.16,1330.8 820.504,1330.8C825.116,1330.8 829.253,1332.7 832.915,1336.5L832.915,1331.9ZM811.186,1351.59C811.186,1355.39 812.204,1358.48 814.238,1360.87C816.327,1363.28 818.958,1364.49 822.132,1364.49C825.523,1364.49 828.263,1363.33 830.351,1360.99C832.44,1358.58 833.485,1355.51 833.485,1351.8C833.485,1348.08 832.44,1345.01 830.351,1342.6C828.263,1340.24 825.55,1339.06 822.213,1339.06C819.067,1339.06 816.435,1340.25 814.32,1342.64C812.231,1345.06 811.186,1348.04 811.186,1351.59Z" style="fill-rule:nonzero;"/>
                                    <path d="M862.822,1331.9L862.822,1371.53L853.667,1371.53L853.667,1331.9L862.822,1331.9ZM852.283,1315.42C852.283,1313.82 852.867,1312.43 854.033,1311.27C855.199,1310.1 856.597,1309.52 858.224,1309.52C859.879,1309.52 861.289,1310.1 862.456,1311.27C863.622,1312.41 864.206,1313.81 864.206,1315.46C864.206,1317.11 863.622,1318.53 862.456,1319.69C861.317,1320.86 859.92,1321.44 858.265,1321.44C856.61,1321.44 855.199,1320.86 854.033,1319.69C852.867,1318.53 852.283,1317.1 852.283,1315.42Z" style="fill-rule:nonzero;"/>
                                    <rect x="874.419" y="1302.81" width="9.155" height="68.726" style="fill-rule:nonzero;"/>
                                    <path d="M637.277,1457.35L637.277,1394.52L650.46,1394.52C656.781,1394.52 661.772,1395.14 665.434,1396.39C669.368,1397.61 672.935,1399.69 676.136,1402.62C682.619,1408.53 685.861,1416.3 685.861,1425.93C685.861,1435.59 682.484,1443.4 675.729,1449.37C672.338,1452.36 668.785,1454.43 665.068,1455.6C661.596,1456.76 656.672,1457.35 650.298,1457.35L637.277,1457.35ZM646.758,1448.43L651.03,1448.43C655.289,1448.43 658.829,1447.99 661.65,1447.09C664.471,1446.14 667.021,1444.64 669.3,1442.58C673.966,1438.32 676.299,1432.77 676.299,1425.93C676.299,1419.04 673.993,1413.45 669.381,1409.17C665.231,1405.34 659.114,1403.43 651.03,1403.43L646.758,1403.43L646.758,1448.43Z" style="fill-rule:nonzero;"/>
                                    <path d="M732.125,1439.69L703.724,1439.69C703.968,1442.94 705.026,1445.53 706.898,1447.46C708.769,1449.36 711.17,1450.31 714.1,1450.31C716.378,1450.31 718.264,1449.76 719.756,1448.68C721.221,1447.59 722.889,1445.59 724.761,1442.66L732.492,1446.97C731.298,1449 730.037,1450.75 728.708,1452.2C727.378,1453.65 725.954,1454.84 724.435,1455.78C722.916,1456.71 721.275,1457.4 719.512,1457.83C717.748,1458.27 715.836,1458.49 713.774,1458.49C707.861,1458.49 703.113,1456.59 699.533,1452.79C695.952,1448.96 694.162,1443.89 694.162,1437.57C694.162,1431.3 695.898,1426.23 699.37,1422.35C702.869,1418.53 707.508,1416.62 713.286,1416.62C719.118,1416.62 723.73,1418.47 727.121,1422.19C730.484,1425.88 732.166,1430.99 732.166,1437.53L732.125,1439.69ZM722.726,1432.2C721.451,1427.32 718.372,1424.88 713.489,1424.88C712.377,1424.88 711.333,1425.05 710.356,1425.38C709.38,1425.72 708.491,1426.21 707.691,1426.85C706.891,1427.49 706.206,1428.25 705.636,1429.15C705.067,1430.04 704.633,1431.06 704.334,1432.2L722.726,1432.2Z" style="fill-rule:nonzero;"/>
                                    <rect x="742.135" y="1388.62" width="9.155" height="68.726" style="fill-rule:nonzero;"/>
                                    <path d="M772.042,1417.71L772.042,1457.35L762.887,1457.35L762.887,1417.71L772.042,1417.71ZM761.504,1401.23C761.504,1399.63 762.087,1398.25 763.253,1397.08C764.42,1395.92 765.817,1395.33 767.445,1395.33C769.099,1395.33 770.51,1395.92 771.676,1397.08C772.843,1398.22 773.426,1399.62 773.426,1401.28C773.426,1402.93 772.843,1404.34 771.676,1405.51C770.537,1406.67 769.14,1407.26 767.485,1407.26C765.83,1407.26 764.42,1406.67 763.253,1405.51C762.087,1404.34 761.504,1402.92 761.504,1401.23Z" style="fill-rule:nonzero;"/>
                                    <path d="M788.563,1417.71L798.817,1439.97L809.03,1417.71L819.324,1417.71L798.735,1460.07L778.309,1417.71L788.563,1417.71Z" style="fill-rule:nonzero;"/>
                                    <path d="M860.177,1439.69L831.776,1439.69C832.02,1442.94 833.078,1445.53 834.949,1447.46C836.821,1449.36 839.222,1450.31 842.152,1450.31C844.43,1450.31 846.315,1449.76 847.807,1448.68C849.272,1447.59 850.941,1445.59 852.812,1442.66L860.543,1446.97C859.35,1449 858.088,1450.75 856.759,1452.2C855.43,1453.65 854.006,1454.84 852.487,1455.78C850.968,1456.71 849.327,1457.4 847.563,1457.83C845.8,1458.27 843.888,1458.49 841.826,1458.49C835.912,1458.49 831.165,1456.59 827.584,1452.79C824.004,1448.96 822.213,1443.89 822.213,1437.57C822.213,1431.3 823.949,1426.23 827.422,1422.35C830.921,1418.53 835.56,1416.62 841.338,1416.62C847.17,1416.62 851.782,1418.47 855.172,1422.19C858.536,1425.88 860.218,1430.99 860.218,1437.53L860.177,1439.69ZM850.778,1432.2C849.503,1427.32 846.424,1424.88 841.541,1424.88C840.429,1424.88 839.385,1425.05 838.408,1425.38C837.431,1425.72 836.543,1426.21 835.743,1426.85C834.943,1427.49 834.258,1428.25 833.688,1429.15C833.118,1430.04 832.684,1431.06 832.386,1432.2L850.778,1432.2Z" style="fill-rule:nonzero;"/>
                                    <path d="M870.187,1417.71L879.342,1417.71L879.342,1421.25C881.024,1419.49 882.516,1418.28 883.818,1417.63C885.147,1416.95 886.721,1416.62 888.538,1416.62C890.953,1416.62 893.475,1417.4 896.107,1418.98L891.916,1427.36C890.179,1426.11 888.484,1425.49 886.829,1425.49C881.838,1425.49 879.342,1429.26 879.342,1436.8L879.342,1457.35L870.187,1457.35L870.187,1417.71Z" style="fill-rule:nonzero;"/>
                                    <path d="M917.51,1449.98L899.687,1417.71L910.307,1417.71L922.433,1440.5L933.745,1417.71L944.08,1417.71L912.505,1478.91L902.047,1478.91L917.51,1449.98Z" style="fill-rule:nonzero;"/>
                                </g>
                            </g>
                        </g>
                        <g transform="matrix(0.981853,0,0,0.996502,12.2176,5.23226)">
                            <path d="M597.106,1735.63L679.997,1500.82" style="fill:none;stroke:black;stroke-width:12.64px;"/>
                        </g>
                        <g transform="matrix(0.694275,-0.694275,0.704633,0.704633,-643.842,912.29)">
                            <path d="M597.106,1735.63L673.273,1495.76" style="fill:none;stroke:black;stroke-width:12.64px;"/>
                        </g>
                        <g transform="matrix(0.981853,0,0,0.996502,1108.36,5.23226)">
                            <path d="M597.106,1735.63L675.71,1512.97" style="fill:none;stroke:black;stroke-width:12.64px;"/>
                        </g>
                        <g transform="matrix(0.694275,-0.694275,0.704633,0.704633,452.297,912.29)">
                            <path d="M597.106,1735.63L677.229,1483.3" style="fill:none;stroke:black;stroke-width:12.64px;"/>
                        </g>
                    </g>
                    <g transform="matrix(1,0,0,1,1058.28,0)">
                        <g transform="matrix(1.31796,0,0,1.31796,209.812,29.4092)">
                            <circle cx="433.971" cy="916.968" r="211.919" style="fill:none;stroke:black;stroke-width:9.48px;"/>
                        </g>
                        <g transform="matrix(1,0,0,1,-5.36836,-152.958)">
                            <path d="M727.08,1317.62L701.893,1317.62L701.893,1332.71L726.348,1332.71L726.348,1341.62L701.893,1341.62L701.893,1362.62L727.08,1362.62L727.08,1371.53L692.412,1371.53L692.412,1308.7L727.08,1308.7L727.08,1317.62Z" style="fill-rule:nonzero;"/>
                            <path d="M737.781,1331.9L746.937,1331.9L746.937,1335.56C748.7,1333.72 750.205,1332.47 751.453,1331.82C752.783,1331.14 754.451,1330.8 756.458,1330.8C760.934,1330.8 764.474,1332.75 767.078,1336.66C769.954,1332.75 773.846,1330.8 778.756,1330.8C787.681,1330.8 792.143,1336.21 792.143,1347.04L792.143,1371.53L782.947,1371.53L782.947,1349.52C782.947,1345.72 782.486,1343.03 781.564,1341.46C780.615,1339.86 779.055,1339.06 776.885,1339.06C774.362,1339.06 772.524,1340.01 771.371,1341.91C770.218,1343.81 769.642,1346.86 769.642,1351.06L769.642,1371.53L760.446,1371.53L760.446,1349.64C760.446,1342.59 758.411,1339.06 754.342,1339.06C751.765,1339.06 749.887,1340.02 748.707,1341.95C747.527,1343.88 746.937,1346.91 746.937,1351.06L746.937,1371.53L737.781,1371.53L737.781,1331.9Z" style="fill-rule:nonzero;"/>
                            <path d="M832.915,1331.9L842.111,1331.9L842.111,1371.53L832.915,1371.53L832.915,1367.38C829.144,1370.91 825.089,1372.67 820.749,1372.67C815.269,1372.67 810.739,1370.69 807.158,1366.73C803.604,1362.69 801.828,1357.64 801.828,1351.59C801.828,1345.65 803.604,1340.7 807.158,1336.74C810.712,1332.78 815.16,1330.8 820.504,1330.8C825.116,1330.8 829.253,1332.7 832.915,1336.5L832.915,1331.9ZM811.186,1351.59C811.186,1355.39 812.204,1358.48 814.238,1360.87C816.327,1363.28 818.958,1364.49 822.132,1364.49C825.523,1364.49 828.263,1363.33 830.351,1360.99C832.44,1358.58 833.485,1355.51 833.485,1351.8C833.485,1348.08 832.44,1345.01 830.351,1342.6C828.263,1340.24 825.55,1339.06 822.213,1339.06C819.067,1339.06 816.435,1340.25 814.32,1342.64C812.231,1345.06 811.186,1348.04 811.186,1351.59Z" style="fill-rule:nonzero;"/>
                            <path d="M862.822,1331.9L862.822,1371.53L853.667,1371.53L853.667,1331.9L862.822,1331.9ZM852.283,1315.42C852.283,1313.82 852.867,1312.43 854.033,1311.27C855.199,1310.1 856.597,1309.52 858.224,1309.52C859.879,1309.52 861.289,1310.1 862.456,1311.27C863.622,1312.41 864.206,1313.81 864.206,1315.46C864.206,1317.11 863.622,1318.53 862.456,1319.69C861.317,1320.86 859.92,1321.44 858.265,1321.44C856.61,1321.44 855.199,1320.86 854.033,1319.69C852.867,1318.53 852.283,1317.1 852.283,1315.42Z" style="fill-rule:nonzero;"/>
                            <rect x="874.419" y="1302.81" width="9.155" height="68.726" style="fill-rule:nonzero;"/>
                            <path d="M691.252,1403.88L683.562,1408.44C682.124,1405.94 680.754,1404.31 679.452,1403.55C678.096,1402.68 676.346,1402.25 674.203,1402.25C671.572,1402.25 669.388,1403 667.652,1404.49C665.916,1405.95 665.048,1407.8 665.048,1410.02C665.048,1413.09 667.327,1415.56 671.884,1417.43L678.15,1419.99C683.25,1422.05 686.98,1424.57 689.34,1427.54C691.7,1430.51 692.88,1434.15 692.88,1438.47C692.88,1444.24 690.954,1449.02 687.102,1452.79C683.223,1456.59 678.408,1458.49 672.657,1458.49C667.204,1458.49 662.701,1456.87 659.148,1453.64C655.648,1450.41 653.465,1445.87 652.597,1440.01L662.2,1437.9C662.634,1441.59 663.393,1444.13 664.478,1445.55C666.431,1448.26 669.28,1449.62 673.023,1449.62C675.98,1449.62 678.435,1448.62 680.388,1446.64C682.341,1444.66 683.318,1442.15 683.318,1439.12C683.318,1437.9 683.148,1436.78 682.809,1435.76C682.47,1434.74 681.941,1433.81 681.222,1432.95C680.503,1432.1 679.574,1431.3 678.435,1430.55C677.296,1429.81 675.939,1429.09 674.366,1428.41L668.303,1425.89C659.704,1422.26 655.404,1416.94 655.404,1409.94C655.404,1405.22 657.208,1401.28 660.816,1398.1C664.424,1394.9 668.913,1393.3 674.285,1393.3C681.527,1393.3 687.183,1396.83 691.252,1403.88Z" style="fill-rule:nonzero;"/>
                            <path d="M738.656,1439.69L710.255,1439.69C710.499,1442.94 711.557,1445.53 713.428,1447.46C715.3,1449.36 717.701,1450.31 720.631,1450.31C722.909,1450.31 724.794,1449.76 726.286,1448.68C727.751,1447.59 729.42,1445.59 731.291,1442.66L739.022,1446.97C737.829,1449 736.568,1450.75 735.238,1452.2C733.909,1453.65 732.485,1454.84 730.966,1455.78C729.447,1456.71 727.806,1457.4 726.042,1457.83C724.279,1458.27 722.367,1458.49 720.305,1458.49C714.391,1458.49 709.644,1456.59 706.063,1452.79C702.483,1448.96 700.692,1443.89 700.692,1437.57C700.692,1431.3 702.429,1426.23 705.901,1422.35C709.4,1418.53 714.039,1416.62 719.817,1416.62C725.649,1416.62 730.261,1418.47 733.651,1422.19C737.015,1425.88 738.697,1430.99 738.697,1437.53L738.656,1439.69ZM729.257,1432.2C727.982,1427.32 724.903,1424.88 720.02,1424.88C718.908,1424.88 717.864,1425.05 716.887,1425.38C715.91,1425.72 715.022,1426.21 714.222,1426.85C713.422,1427.49 712.737,1428.25 712.167,1429.15C711.597,1430.04 711.163,1431.06 710.865,1432.2L729.257,1432.2Z" style="fill-rule:nonzero;"/>
                            <path d="M748.666,1417.71L757.821,1417.71L757.821,1421.25C759.503,1419.49 760.995,1418.28 762.297,1417.63C763.626,1416.95 765.2,1416.62 767.017,1416.62C769.432,1416.62 771.954,1417.4 774.586,1418.98L770.395,1427.36C768.658,1426.11 766.963,1425.49 765.308,1425.49C760.317,1425.49 757.821,1429.26 757.821,1436.8L757.821,1457.35L748.666,1457.35L748.666,1417.71Z" style="fill-rule:nonzero;"/>
                            <path d="M788.339,1417.71L798.593,1439.97L808.806,1417.71L819.101,1417.71L798.511,1460.07L778.085,1417.71L788.339,1417.71Z" style="fill-rule:nonzero;"/>
                            <path d="M834.441,1417.71L834.441,1457.35L825.285,1457.35L825.285,1417.71L834.441,1417.71ZM823.902,1401.23C823.902,1399.63 824.485,1398.25 825.652,1397.08C826.818,1395.92 828.215,1395.33 829.843,1395.33C831.498,1395.33 832.908,1395.92 834.075,1397.08C835.241,1398.22 835.824,1399.62 835.824,1401.28C835.824,1402.93 835.241,1404.34 834.075,1405.51C832.935,1406.67 831.538,1407.26 829.883,1407.26C828.229,1407.26 826.818,1406.67 825.652,1405.51C824.485,1404.34 823.902,1402.92 823.902,1401.23Z" style="fill-rule:nonzero;"/>
                            <path d="M876.881,1419.42L876.881,1431.59C874.792,1429.04 872.92,1427.29 871.265,1426.34C869.638,1425.36 867.725,1424.88 865.528,1424.88C862.083,1424.88 859.221,1426.08 856.942,1428.5C854.664,1430.91 853.524,1433.93 853.524,1437.57C853.524,1441.29 854.623,1444.34 856.82,1446.73C859.045,1449.11 861.879,1450.31 865.325,1450.31C867.522,1450.31 869.461,1449.83 871.143,1448.88C872.771,1447.96 874.683,1446.17 876.881,1443.51L876.881,1455.6C873.164,1457.52 869.448,1458.49 865.731,1458.49C859.601,1458.49 854.474,1456.51 850.351,1452.54C846.227,1448.56 844.166,1443.61 844.166,1437.69C844.166,1431.78 846.254,1426.79 850.432,1422.72C854.609,1418.65 859.736,1416.62 865.813,1416.62C869.719,1416.62 873.408,1417.55 876.881,1419.42Z" style="fill-rule:nonzero;"/>
                            <path d="M921.843,1439.69L893.441,1439.69C893.686,1442.94 894.743,1445.53 896.615,1447.46C898.487,1449.36 900.888,1450.31 903.817,1450.31C906.096,1450.31 907.981,1449.76 909.473,1448.68C910.938,1447.59 912.606,1445.59 914.478,1442.66L922.209,1446.97C921.016,1449 919.754,1450.75 918.425,1452.2C917.096,1453.65 915.672,1454.84 914.153,1455.78C912.634,1456.71 910.992,1457.4 909.229,1457.83C907.466,1458.27 905.554,1458.49 903.492,1458.49C897.578,1458.49 892.831,1456.59 889.25,1452.79C885.67,1448.96 883.879,1443.89 883.879,1437.57C883.879,1431.3 885.615,1426.23 889.088,1422.35C892.587,1418.53 897.226,1416.62 903.004,1416.62C908.836,1416.62 913.447,1418.47 916.838,1422.19C920.202,1425.88 921.884,1430.99 921.884,1437.53L921.843,1439.69ZM912.444,1432.2C911.169,1427.32 908.09,1424.88 903.207,1424.88C902.095,1424.88 901.05,1425.05 900.074,1425.38C899.097,1425.72 898.209,1426.21 897.409,1426.85C896.608,1427.49 895.924,1428.25 895.354,1429.15C894.784,1430.04 894.35,1431.06 894.052,1432.2L912.444,1432.2Z" style="fill-rule:nonzero;"/>
                        </g>
                    </g>
                </g>
                <g transform="matrix(1,0,0,1,458.387,-598.892)">
                    <g transform="matrix(1.31796,0,0,1.31796,209.812,29.4092)">
                        <circle cx="433.971" cy="916.968" r="211.919" style="fill:none;stroke:black;stroke-width:9.48px;"/>
                    </g>
                    <g transform="matrix(1,0,0,1,-5.36836,-195.865)">
                        <path d="M645.313,1312.08L645.313,1323.31C639.834,1318.73 634.164,1316.44 628.305,1316.44C621.849,1316.44 616.41,1318.76 611.988,1323.39C607.539,1328.01 605.315,1333.65 605.315,1340.32C605.315,1346.91 607.539,1352.47 611.988,1357C616.437,1361.53 621.889,1363.8 628.345,1363.8C631.682,1363.8 634.517,1363.26 636.85,1362.17C638.152,1361.63 639.501,1360.9 640.898,1359.97C642.295,1359.05 643.767,1357.94 645.313,1356.64L645.313,1368.07C639.888,1371.14 634.191,1372.67 628.223,1372.67C619.244,1372.67 611.581,1369.54 605.233,1363.27C598.913,1356.95 595.753,1349.33 595.753,1340.4C595.753,1332.4 598.397,1325.27 603.687,1319C610.198,1311.32 618.62,1307.48 628.956,1307.48C634.598,1307.48 640.051,1309.02 645.313,1312.08Z" style="fill-rule:nonzero;"/>
                        <path d="M684.742,1331.9L693.938,1331.9L693.938,1371.53L684.742,1371.53L684.742,1367.38C680.971,1370.91 676.916,1372.67 672.576,1372.67C667.096,1372.67 662.566,1370.69 658.985,1366.73C655.431,1362.69 653.655,1357.64 653.655,1351.59C653.655,1345.65 655.431,1340.7 658.985,1336.74C662.539,1332.78 666.987,1330.8 672.331,1330.8C676.943,1330.8 681.08,1332.7 684.742,1336.5L684.742,1331.9ZM663.013,1351.59C663.013,1355.39 664.031,1358.48 666.065,1360.87C668.154,1363.28 670.785,1364.49 673.959,1364.49C677.35,1364.49 680.09,1363.33 682.178,1360.99C684.267,1358.58 685.312,1355.51 685.312,1351.8C685.312,1348.08 684.267,1345.01 682.178,1342.6C680.09,1340.24 677.377,1339.06 674.04,1339.06C670.894,1339.06 668.262,1340.25 666.146,1342.64C664.058,1345.06 663.013,1348.04 663.013,1351.59Z" style="fill-rule:nonzero;"/>
                        <path d="M705.494,1331.9L714.649,1331.9L714.649,1335.56C716.412,1333.72 717.918,1332.47 719.166,1331.82C720.495,1331.14 722.163,1330.8 724.171,1330.8C728.646,1330.8 732.187,1332.75 734.791,1336.66C737.666,1332.75 741.559,1330.8 746.469,1330.8C755.393,1330.8 759.856,1336.21 759.856,1347.04L759.856,1371.53L750.66,1371.53L750.66,1349.52C750.66,1345.72 750.199,1343.03 749.276,1341.46C748.327,1339.86 746.767,1339.06 744.597,1339.06C742.074,1339.06 740.236,1340.01 739.084,1341.91C737.931,1343.81 737.354,1346.86 737.354,1351.06L737.354,1371.53L728.158,1371.53L728.158,1349.64C728.158,1342.59 726.124,1339.06 722.055,1339.06C719.478,1339.06 717.599,1340.02 716.419,1341.95C715.239,1343.88 714.649,1346.91 714.649,1351.06L714.649,1371.53L705.494,1371.53L705.494,1331.9Z" style="fill-rule:nonzero;"/>
                        <path d="M781.584,1393.1L772.429,1393.1L772.429,1331.9L781.584,1331.9L781.584,1336.21C785.192,1332.6 789.288,1330.8 793.873,1330.8C799.325,1330.8 803.815,1332.81 807.341,1336.82C810.922,1340.81 812.712,1345.84 812.712,1351.92C812.712,1357.86 810.935,1362.81 807.382,1366.77C803.855,1370.7 799.407,1372.67 794.035,1372.67C789.397,1372.67 785.246,1370.81 781.584,1367.1L781.584,1393.1ZM803.354,1351.96C803.354,1348.16 802.323,1345.07 800.261,1342.68C798.172,1340.27 795.541,1339.06 792.367,1339.06C789.003,1339.06 786.277,1340.23 784.188,1342.56C782.1,1344.89 781.055,1347.96 781.055,1351.76C781.055,1355.47 782.1,1358.54 784.188,1360.95C786.25,1363.31 788.963,1364.49 792.327,1364.49C795.5,1364.49 798.118,1363.3 800.18,1360.91C802.296,1358.52 803.354,1355.54 803.354,1351.96Z" style="fill-rule:nonzero;"/>
                        <path d="M851.612,1331.9L860.808,1331.9L860.808,1371.53L851.612,1371.53L851.612,1367.38C847.841,1370.91 843.786,1372.67 839.446,1372.67C833.966,1372.67 829.436,1370.69 825.855,1366.73C822.302,1362.69 820.525,1357.64 820.525,1351.59C820.525,1345.65 822.302,1340.7 825.855,1336.74C829.409,1332.78 833.858,1330.8 839.202,1330.8C843.813,1330.8 847.95,1332.7 851.612,1336.5L851.612,1331.9ZM829.883,1351.59C829.883,1355.39 830.901,1358.48 832.935,1360.87C835.024,1363.28 837.655,1364.49 840.829,1364.49C844.22,1364.49 846.96,1363.33 849.049,1360.99C851.137,1358.58 852.182,1355.51 852.182,1351.8C852.182,1348.08 851.137,1345.01 849.049,1342.6C846.96,1340.24 844.247,1339.06 840.91,1339.06C837.764,1339.06 835.132,1340.25 833.017,1342.64C830.928,1345.06 829.883,1348.04 829.883,1351.59Z" style="fill-rule:nonzero;"/>
                        <path d="M881.519,1331.9L881.519,1371.53L872.364,1371.53L872.364,1331.9L881.519,1331.9ZM870.98,1315.42C870.98,1313.82 871.564,1312.43 872.73,1311.27C873.897,1310.1 875.294,1309.52 876.921,1309.52C878.576,1309.52 879.987,1310.1 881.153,1311.27C882.319,1312.41 882.903,1313.81 882.903,1315.46C882.903,1317.11 882.319,1318.53 881.153,1319.69C880.014,1320.86 878.617,1321.44 876.962,1321.44C875.307,1321.44 873.897,1320.86 872.73,1319.69C871.564,1318.53 870.98,1317.1 870.98,1315.42Z" style="fill-rule:nonzero;"/>
                        <path d="M931.446,1370.6C931.446,1372.47 931.385,1374.11 931.263,1375.54C931.141,1376.96 930.971,1378.22 930.754,1379.3C930.103,1382.29 928.828,1384.85 926.929,1386.99C923.349,1391.12 918.425,1393.18 912.159,1393.18C906.869,1393.18 902.515,1391.75 899.097,1388.9C895.571,1385.98 893.536,1381.92 892.994,1376.74L902.19,1376.74C902.542,1378.69 903.126,1380.2 903.939,1381.26C905.838,1383.72 908.605,1384.96 912.24,1384.96C918.941,1384.96 922.291,1380.85 922.291,1372.63L922.291,1367.1C918.656,1370.81 914.465,1372.67 909.717,1372.67C904.319,1372.67 899.898,1370.72 896.452,1366.81C892.98,1362.85 891.244,1357.9 891.244,1351.96C891.244,1346.18 892.858,1341.27 896.086,1337.23C899.558,1332.94 904.143,1330.8 909.84,1330.8C914.831,1330.8 918.981,1332.66 922.291,1336.37L922.291,1331.9L931.446,1331.9L931.446,1370.6ZM922.657,1351.8C922.657,1347.94 921.626,1344.87 919.564,1342.56C917.476,1340.2 914.804,1339.02 911.549,1339.02C908.076,1339.02 905.336,1340.31 903.329,1342.88C901.512,1345.19 900.603,1348.17 900.603,1351.84C900.603,1355.44 901.512,1358.4 903.329,1360.71C905.309,1363.23 908.049,1364.49 911.549,1364.49C915.048,1364.49 917.815,1363.22 919.849,1360.67C921.721,1358.36 922.657,1355.4 922.657,1351.8Z" style="fill-rule:nonzero;"/>
                        <path d="M943.002,1331.9L952.198,1331.9L952.198,1335.56C955.399,1332.39 959.007,1330.8 963.021,1330.8C967.633,1330.8 971.227,1332.25 973.804,1335.15C976.029,1337.62 977.141,1341.65 977.141,1347.24L977.141,1371.53L967.945,1371.53L967.945,1349.39C967.945,1345.49 967.402,1342.79 966.317,1341.3C965.259,1339.78 963.333,1339.02 960.539,1339.02C957.501,1339.02 955.345,1340.02 954.07,1342.03C952.822,1344.01 952.198,1347.47 952.198,1352.41L952.198,1371.53L943.002,1371.53L943.002,1331.9Z" style="fill-rule:nonzero;"/>
                        <path d="M616.433,1457.35L629.657,1389.8L651.223,1438.63L673.562,1389.8L685.443,1457.35L675.718,1457.35L669.656,1419.42L651.06,1460.24L632.994,1419.38L626.239,1457.35L616.433,1457.35Z" style="fill-rule:nonzero;"/>
                        <path d="M726.215,1417.71L735.411,1417.71L735.411,1457.35L726.215,1457.35L726.215,1453.19C722.444,1456.72 718.389,1458.49 714.049,1458.49C708.569,1458.49 704.039,1456.51 700.458,1452.54C696.904,1448.5 695.128,1443.46 695.128,1437.41C695.128,1431.47 696.904,1426.52 700.458,1422.56C704.012,1418.6 708.46,1416.62 713.804,1416.62C718.416,1416.62 722.553,1418.51 726.215,1422.31L726.215,1417.71ZM704.486,1437.41C704.486,1441.2 705.504,1444.3 707.538,1446.68C709.627,1449.1 712.258,1450.31 715.432,1450.31C718.823,1450.31 721.563,1449.14 723.651,1446.81C725.74,1444.39 726.785,1441.33 726.785,1437.61C726.785,1433.89 725.74,1430.83 723.651,1428.41C721.563,1426.06 718.85,1424.88 715.513,1424.88C712.367,1424.88 709.735,1426.07 707.619,1428.46C705.531,1430.87 704.486,1433.85 704.486,1437.41Z" style="fill-rule:nonzero;"/>
                        <path d="M746.967,1417.71L756.163,1417.71L756.163,1421.38C759.364,1418.2 762.972,1416.62 766.986,1416.62C771.598,1416.62 775.192,1418.07 777.769,1420.97C779.994,1423.44 781.106,1427.47 781.106,1433.05L781.106,1457.35L771.91,1457.35L771.91,1435.21C771.91,1431.3 771.367,1428.61 770.282,1427.11C769.224,1425.59 767.298,1424.83 764.504,1424.83C761.466,1424.83 759.309,1425.84 758.035,1427.85C756.787,1429.83 756.163,1433.28 756.163,1438.22L756.163,1457.35L746.967,1457.35L746.967,1417.71Z" style="fill-rule:nonzero;"/>
                        <path d="M821.877,1417.71L831.073,1417.71L831.073,1457.35L821.877,1457.35L821.877,1453.19C818.107,1456.72 814.051,1458.49 809.711,1458.49C804.231,1458.49 799.701,1456.51 796.12,1452.54C792.567,1448.5 790.79,1443.46 790.79,1437.41C790.79,1431.47 792.567,1426.52 796.12,1422.56C799.674,1418.6 804.123,1416.62 809.467,1416.62C814.078,1416.62 818.215,1418.51 821.877,1422.31L821.877,1417.71ZM800.149,1437.41C800.149,1441.2 801.166,1444.3 803.201,1446.68C805.289,1449.1 807.921,1450.31 811.094,1450.31C814.485,1450.31 817.225,1449.14 819.314,1446.81C821.403,1444.39 822.447,1441.33 822.447,1437.61C822.447,1433.89 821.403,1430.83 819.314,1428.41C817.225,1426.06 814.512,1424.88 811.176,1424.88C808.029,1424.88 805.398,1426.07 803.282,1428.46C801.193,1430.87 800.149,1433.85 800.149,1437.41Z" style="fill-rule:nonzero;"/>
                        <path d="M880.959,1456.41C880.959,1458.28 880.898,1459.93 880.776,1461.35C880.654,1462.78 880.485,1464.03 880.268,1465.12C879.617,1468.1 878.342,1470.66 876.443,1472.81C872.862,1476.93 867.938,1478.99 861.672,1478.99C856.382,1478.99 852.029,1477.57 848.611,1474.72C845.084,1471.79 843.05,1467.74 842.507,1462.55L851.703,1462.55C852.056,1464.51 852.639,1466.01 853.453,1467.07C855.352,1469.54 858.119,1470.77 861.754,1470.77C868.454,1470.77 871.804,1466.66 871.804,1458.44L871.804,1452.91C868.169,1456.63 863.978,1458.49 859.231,1458.49C853.833,1458.49 849.411,1456.53 845.966,1452.63C842.494,1448.66 840.757,1443.71 840.757,1437.77C840.757,1432 842.372,1427.09 845.6,1423.04C849.072,1418.76 853.656,1416.62 859.353,1416.62C864.344,1416.62 868.495,1418.47 871.804,1422.19L871.804,1417.71L880.959,1417.71L880.959,1456.41ZM872.17,1437.61C872.17,1433.76 871.139,1430.68 869.078,1428.37C866.989,1426.01 864.317,1424.83 861.062,1424.83C857.59,1424.83 854.85,1426.12 852.842,1428.7C851.025,1431.01 850.116,1433.99 850.116,1437.65C850.116,1441.26 851.025,1444.22 852.842,1446.52C854.823,1449.05 857.563,1450.31 861.062,1450.31C864.561,1450.31 867.328,1449.03 869.363,1446.48C871.234,1444.18 872.17,1441.22 872.17,1437.61Z" style="fill-rule:nonzero;"/>
                        <path d="M927.774,1439.69L899.372,1439.69C899.617,1442.94 900.674,1445.53 902.546,1447.46C904.418,1449.36 906.819,1450.31 909.748,1450.31C912.027,1450.31 913.912,1449.76 915.404,1448.68C916.869,1447.59 918.537,1445.59 920.409,1442.66L928.14,1446.97C926.947,1449 925.685,1450.75 924.356,1452.2C923.027,1453.65 921.603,1454.84 920.084,1455.78C918.565,1456.71 916.923,1457.4 915.16,1457.83C913.397,1458.27 911.484,1458.49 909.423,1458.49C903.509,1458.49 898.762,1456.59 895.181,1452.79C891.601,1448.96 889.81,1443.89 889.81,1437.57C889.81,1431.3 891.546,1426.23 895.019,1422.35C898.518,1418.53 903.157,1416.62 908.935,1416.62C914.767,1416.62 919.378,1418.47 922.769,1422.19C926.133,1425.88 927.815,1430.99 927.815,1437.53L927.774,1439.69ZM918.375,1432.2C917.1,1427.32 914.021,1424.88 909.138,1424.88C908.026,1424.88 906.981,1425.05 906.005,1425.38C905.028,1425.72 904.14,1426.21 903.34,1426.85C902.539,1427.49 901.855,1428.25 901.285,1429.15C900.715,1430.04 900.281,1431.06 899.983,1432.2L918.375,1432.2Z" style="fill-rule:nonzero;"/>
                        <path d="M937.784,1417.71L946.939,1417.71L946.939,1421.25C948.621,1419.49 950.113,1418.28 951.415,1417.63C952.744,1416.95 954.318,1416.62 956.135,1416.62C958.549,1416.62 961.072,1417.4 963.703,1418.98L959.512,1427.36C957.776,1426.11 956.081,1425.49 954.426,1425.49C949.435,1425.49 946.939,1429.26 946.939,1436.8L946.939,1457.35L937.784,1457.35L937.784,1417.71Z" style="fill-rule:nonzero;"/>
                        <path d="M691.252,1489.69L683.562,1494.25C682.124,1491.76 680.754,1490.13 679.452,1489.37C678.096,1488.5 676.346,1488.07 674.203,1488.07C671.572,1488.07 669.388,1488.81 667.652,1490.31C665.916,1491.77 665.048,1493.61 665.048,1495.84C665.048,1498.9 667.327,1501.37 671.884,1503.24L678.15,1505.81C683.25,1507.87 686.98,1510.38 689.34,1513.36C691.7,1516.33 692.88,1519.97 692.88,1524.28C692.88,1530.06 690.954,1534.83 687.102,1538.6C683.223,1542.4 678.408,1544.3 672.657,1544.3C667.204,1544.3 662.701,1542.69 659.148,1539.46C655.648,1536.23 653.465,1531.69 652.597,1525.83L662.2,1523.71C662.634,1527.4 663.393,1529.95 664.478,1531.36C666.431,1534.07 669.28,1535.43 673.023,1535.43C675.98,1535.43 678.435,1534.44 680.388,1532.46C682.341,1530.48 683.318,1527.97 683.318,1524.93C683.318,1523.71 683.148,1522.59 682.809,1521.58C682.47,1520.56 681.941,1519.62 681.222,1518.77C680.503,1517.91 679.574,1517.11 678.435,1516.37C677.296,1515.62 675.939,1514.91 674.366,1514.23L668.303,1511.71C659.704,1508.07 655.404,1502.76 655.404,1495.76C655.404,1491.04 657.208,1487.09 660.816,1483.92C664.424,1480.72 668.913,1479.12 674.285,1479.12C681.527,1479.12 687.183,1482.64 691.252,1489.69Z" style="fill-rule:nonzero;"/>
                        <path d="M738.656,1525.5L710.255,1525.5C710.499,1528.76 711.557,1531.35 713.428,1533.27C715.3,1535.17 717.701,1536.12 720.631,1536.12C722.909,1536.12 724.794,1535.58 726.286,1534.49C727.751,1533.41 729.42,1531.4 731.291,1528.47L739.022,1532.79C737.829,1534.82 736.568,1536.56 735.238,1538.01C733.909,1539.47 732.485,1540.66 730.966,1541.6C729.447,1542.53 727.806,1543.22 726.042,1543.65C724.279,1544.08 722.367,1544.3 720.305,1544.3C714.391,1544.3 709.644,1542.4 706.063,1538.6C702.483,1534.78 700.692,1529.71 700.692,1523.39C700.692,1517.12 702.429,1512.05 705.901,1508.17C709.4,1504.34 714.039,1502.43 719.817,1502.43C725.649,1502.43 730.261,1504.29 733.651,1508.01C737.015,1511.69 738.697,1516.81 738.697,1523.35L738.656,1525.5ZM729.257,1518.02C727.982,1513.13 724.903,1510.69 720.02,1510.69C718.908,1510.69 717.864,1510.86 716.887,1511.2C715.91,1511.54 715.022,1512.03 714.222,1512.66C713.422,1513.3 712.737,1514.07 712.167,1514.96C711.597,1515.86 711.163,1516.88 710.865,1518.02L729.257,1518.02Z" style="fill-rule:nonzero;"/>
                        <path d="M748.666,1503.53L757.821,1503.53L757.821,1507.07C759.503,1505.31 760.995,1504.1 762.297,1503.45C763.626,1502.77 765.2,1502.43 767.017,1502.43C769.432,1502.43 771.954,1503.22 774.586,1504.79L770.395,1513.17C768.658,1511.92 766.963,1511.3 765.308,1511.3C760.317,1511.3 757.821,1515.07 757.821,1522.61L757.821,1543.16L748.666,1543.16L748.666,1503.53Z" style="fill-rule:nonzero;"/>
                        <path d="M788.339,1503.53L798.593,1525.79L808.806,1503.53L819.101,1503.53L798.511,1545.89L778.085,1503.53L788.339,1503.53Z" style="fill-rule:nonzero;"/>
                        <path d="M834.441,1503.53L834.441,1543.16L825.285,1543.16L825.285,1503.53L834.441,1503.53ZM823.902,1487.05C823.902,1485.45 824.485,1484.07 825.652,1482.9C826.818,1481.73 828.215,1481.15 829.843,1481.15C831.498,1481.15 832.908,1481.73 834.075,1482.9C835.241,1484.04 835.824,1485.44 835.824,1487.09C835.824,1488.75 835.241,1490.16 834.075,1491.32C832.935,1492.49 831.538,1493.07 829.883,1493.07C828.229,1493.07 826.818,1492.49 825.652,1491.32C824.485,1490.16 823.902,1488.73 823.902,1487.05Z" style="fill-rule:nonzero;"/>
                        <path d="M876.881,1505.24L876.881,1517.4C874.792,1514.86 872.92,1513.11 871.265,1512.15C869.638,1511.18 867.725,1510.69 865.528,1510.69C862.083,1510.69 859.221,1511.9 856.942,1514.31C854.664,1516.73 853.524,1519.75 853.524,1523.39C853.524,1527.1 854.623,1530.15 856.82,1532.54C859.045,1534.93 861.879,1536.12 865.325,1536.12C867.522,1536.12 869.461,1535.65 871.143,1534.7C872.771,1533.78 874.683,1531.99 876.881,1529.33L876.881,1541.41C873.164,1543.34 869.448,1544.3 865.731,1544.3C859.601,1544.3 854.474,1542.32 850.351,1538.36C846.227,1534.37 844.166,1529.42 844.166,1523.51C844.166,1517.59 846.254,1512.6 850.432,1508.53C854.609,1504.46 859.736,1502.43 865.813,1502.43C869.719,1502.43 873.408,1503.37 876.881,1505.24Z" style="fill-rule:nonzero;"/>
                        <path d="M921.843,1525.5L893.441,1525.5C893.686,1528.76 894.743,1531.35 896.615,1533.27C898.487,1535.17 900.888,1536.12 903.817,1536.12C906.096,1536.12 907.981,1535.58 909.473,1534.49C910.938,1533.41 912.606,1531.4 914.478,1528.47L922.209,1532.79C921.016,1534.82 919.754,1536.56 918.425,1538.01C917.096,1539.47 915.672,1540.66 914.153,1541.6C912.634,1542.53 910.992,1543.22 909.229,1543.65C907.466,1544.08 905.554,1544.3 903.492,1544.3C897.578,1544.3 892.831,1542.4 889.25,1538.6C885.67,1534.78 883.879,1529.71 883.879,1523.39C883.879,1517.12 885.615,1512.05 889.088,1508.17C892.587,1504.34 897.226,1502.43 903.004,1502.43C908.836,1502.43 913.447,1504.29 916.838,1508.01C920.202,1511.69 921.884,1516.81 921.884,1523.35L921.843,1525.5ZM912.444,1518.02C911.169,1513.13 908.09,1510.69 903.207,1510.69C902.095,1510.69 901.05,1510.86 900.074,1511.2C899.097,1511.54 898.209,1512.03 897.409,1512.66C896.608,1513.3 895.924,1514.07 895.354,1514.96C894.784,1515.86 894.35,1516.88 894.052,1518.02L912.444,1518.02Z" style="fill-rule:nonzero;"/>
                    </g>
                </g>
                <g transform="matrix(0.341666,0,0,0.345546,1091.88,-174.768)">
                    <g>
                        <circle cx="433.971" cy="916.968" r="211.919" style="stroke:black;stroke-width:36.38px;"/>
                    </g>
                </g>
                <g transform="matrix(1,0,0,1,-25.9359,2.97976)">
                    <path d="M1035.1,791.427L782.501,958.817" style="fill:none;stroke:black;stroke-width:12.5px;"/>
                </g>
                <g transform="matrix(1,0,0,1,-25.9359,2.97976)">
                    <path d="M1499.7,799.49L1721.63,961.6" style="fill:none;stroke:black;stroke-width:12.5px;"/>
                </g>
                <g transform="matrix(1,0,0,1,0.41227,0)">
                    <path d="M1239.75,357.4L1239.75,169.97" style="fill:none;stroke:black;stroke-width:12.5px;"/>
                </g>
            </g>
        </g>
    </g>
</svg>
