<svg width="256px" height="256px" version="1.1" xmlns="http://www.w3.org/2000/svg" xmlns:xlink="http://www.w3.org/1999/xlink" x="0px" y="0px" viewBox="0 0 289.8 289.8" style="enable-background:new 0 0 289.8 289.8;" xml:space="preserve">
<g id="Layer_2" style="fill:#FC5B5B" width="200px" height="200px">
	<g>
		<g>
			<path d="M285.8,4v281.8H4V4H285.8 M289.8,0H0v289.8h289.8V0L289.8,0z"/>
		</g>
		<g>
			<polygon points="144.5,28.2 59.1,176.2 229.9,176.2"/>
			<g>
				<path class="st0" d="M108.5,202.8h20.2v57h-20.2v-6.3c-4.3,5.4-10.1,8.1-17.4,8.1c-4.1,0-8-0.8-11.4-2.3					c-3.5-1.5-6.5-3.6-9.1-6.4c-2.6-2.7-4.6-6-6.1-9.7c-1.4-3.7-2.2-7.7-2.2-12.1c0-4.1,0.7-7.9,2.1-11.6c1.4-3.7,3.4-6.9,5.9-9.6
					c2.5-2.7,5.5-4.9,9-6.5c3.5-1.6,7.3-2.4,11.6-2.4c7.1,0,13,2.5,17.7,7.4V202.8z M83.2,231.1c0,1.9,0.3,3.6,1,5.2
					c0.7,1.6,1.6,3,2.7,4.2c1.1,1.2,2.5,2.1,4.1,2.8c1.6,0.7,3.3,1,5.2,1c1.8,0,3.5-0.3,5.1-1c1.6-0.7,3-1.6,4.1-2.8
					c1.1-1.2,2.1-2.6,2.8-4.1c0.7-1.6,1.1-3.2,1.1-5c0-1.8-0.4-3.5-1.1-5.1c-0.7-1.6-1.6-3-2.8-4.2c-1.1-1.2-2.5-2.1-4.1-2.8
					c-1.6-0.7-3.3-1-5.1-1c-1.9,0-3.6,0.3-5.2,1c-1.6,0.7-3,1.6-4.1,2.8c-1.1,1.2-2.1,2.5-2.7,4.1C83.5,227.7,83.2,229.3,83.2,231.1
					z"/>
				<path class="st0" d="M185.4,221.2c-3.5-2.4-7-3.6-10.6-3.6c-1.9,0-3.7,0.3-5.4,1s-3.1,1.6-4.4,2.8c-1.3,1.2-2.2,2.7-2.9,4.3
					c-0.7,1.7-1.1,3.5-1.1,5.6c0,2,0.4,3.8,1.1,5.5c0.7,1.7,1.7,3.1,2.9,4.3s2.7,2.2,4.4,2.8c1.7,0.7,3.5,1,5.4,1
					c3.8,0,7.3-1.3,10.6-3.9v17.1c-5,2.1-9.7,3.2-14.1,3.2c-4.1,0-8.1-0.7-11.8-2.1c-3.7-1.4-7-3.4-9.9-6.1
					c-2.9-2.6-5.1-5.8-6.8-9.4c-1.7-3.7-2.6-7.8-2.6-12.3c0-4.5,0.8-8.6,2.4-12.4c1.6-3.7,3.9-7,6.7-9.7c2.8-2.7,6.2-4.8,10.1-6.3
					c3.9-1.5,8.1-2.3,12.5-2.3c4.9,0,9.4,1,13.6,3.1V221.2z"/>
				<path class="st0" d="M219.3,219.6v40.2h-20.1v-40.2h-6.7v-16.8h6.7v-17.1h20.1v17.1h11.4v16.8H219.3z"/>
			</g>
		</g>
	</g>
</g>
</svg>
